<?xml version="1.0" standalone="no"?>
<!DOCTYPE svg PUBLIC "-//W3C//DTD SVG 20010904//EN"
 "http://www.w3.org/TR/2001/REC-SVG-20010904/DTD/svg10.dtd">
<svg version="1.0" xmlns="http://www.w3.org/2000/svg"
 width="1024.000000pt" height="1024.000000pt" viewBox="0 0 1024.000000 1024.000000"
 preserveAspectRatio="xMidYMid meet">

<g transform="translate(0.000000,1024.000000) scale(0.100000,-0.100000)"
fill="#000000" stroke="none">
<path d="M4584 9675 c-167 -43 -287 -114 -414 -245 -169 -173 -250 -375 -250
-623 0 -242 91 -449 273 -624 101 -97 195 -155 319 -196 83 -27 109 -31 238
-34 129 -4 156 -2 240 20 l94 24 61 -33 c75 -41 169 -64 260 -63 143 2 156 26
50 97 -38 26 -83 66 -99 89 l-29 42 91 90 c175 174 262 379 262 618 0 389
-277 742 -658 839 -132 33 -308 33 -438 -1z m471 -69 c282 -96 481 -312 546
-592 18 -78 21 -114 16 -211 -11 -251 -94 -415 -310 -612 -30 -27 -46 -49 -43
-58 3 -8 6 -19 6 -25 0 -5 34 -43 75 -84 l75 -74 -42 6 c-75 10 -151 35 -219
71 l-67 34 -63 -19 c-184 -57 -382 -47 -567 27 -209 84 -399 308 -463 546 -27
100 -29 275 -6 382 68 313 326 565 648 633 24 5 109 8 189 6 127 -2 155 -6
225 -30z"/>
<path d="M4609 9296 c-125 -51 -198 -133 -219 -247 -11 -58 5 -110 38 -128 59
-31 184 1 190 49 11 89 52 127 125 117 46 -6 74 -30 85 -72 16 -55 -3 -91 -78
-152 -88 -72 -104 -105 -97 -192 3 -36 10 -79 17 -95 10 -28 11 -29 78 -24 37
3 79 11 95 18 23 11 27 19 27 56 0 64 12 85 78 133 106 77 151 165 139 278
-12 118 -105 237 -210 268 -78 23 -200 19 -268 -9z"/>
<path d="M4733 8479 c-75 -37 -102 -114 -69 -194 39 -93 195 -101 257 -14 31
44 34 89 11 143 -17 37 -30 51 -64 66 -55 25 -83 25 -135 -1z"/>
<path d="M7096 9199 c-24 -19 -35 -21 -79 -14 -115 17 -119 16 -150 -43 l-28
-52 -42 6 c-23 3 -74 12 -114 21 -40 8 -77 12 -83 8 -7 -4 -25 -36 -41 -72
-33 -74 -18 -72 -183 -27 -48 14 -90 24 -91 22 -1 -2 -11 -41 -22 -87 -19 -80
-21 -85 -52 -96 -45 -15 -57 -34 -92 -150 -17 -55 -64 -206 -106 -335 -134
-419 -161 -504 -168 -537 -10 -47 16 -88 67 -107 70 -26 956 -206 1014 -206
53 0 63 16 192 305 44 99 94 212 112 250 18 39 43 94 56 123 24 55 33 59 92
43 43 -13 47 -6 132 214 55 142 65 177 54 183 -16 9 -11 24 47 149 47 101 37
134 -46 155 -27 7 -51 13 -53 14 -2 1 3 25 12 52 31 107 -6 136 -230 176 -171
31 -165 31 -198 5z m203 -48 c89 -16 169 -35 177 -41 16 -14 17 -45 4 -75 -7
-14 -8 -10 -4 17 5 29 2 38 -13 47 -15 8 -309 61 -337 61 -3 0 -6 5 -6 10 0
13 -4 14 179 -19z m-146 -31 c106 -16 220 -32 255 -36 34 -3 62 -11 62 -15 0
-5 -4 -9 -10 -9 -5 0 -10 -13 -10 -29 0 -17 -4 -32 -9 -36 -5 -3 -12 -19 -16
-36 -10 -45 -36 -33 -60 28 l-20 51 -50 1 c-62 1 -392 48 -404 57 -2 2 2 17 9
34 11 26 17 30 37 25 13 -3 110 -19 216 -35z m-404 -45 c55 -8 106 -12 115 -9
8 3 72 -4 143 -15 70 -11 164 -23 208 -26 115 -9 125 -12 125 -38 0 -12 -16
-52 -35 -89 -19 -36 -41 -83 -49 -104 -8 -22 -33 -79 -56 -129 -24 -49 -71
-160 -105 -245 -34 -85 -92 -223 -128 -306 -37 -83 -67 -158 -67 -167 0 -8
-16 -49 -35 -90 -19 -41 -35 -78 -35 -82 0 -20 -34 -75 -47 -75 -11 0 -13 4
-6 13 14 17 109 262 123 317 7 25 18 52 25 60 7 8 31 62 53 120 60 156 112
279 179 425 33 72 68 153 78 180 10 28 33 79 51 115 33 64 36 83 11 62 -8 -7
-16 -10 -19 -7 -2 3 -51 10 -109 15 -57 6 -189 24 -293 40 -167 27 -261 36
-231 24 26 -10 318 -54 465 -70 91 -10 166 -19 168 -20 2 -1 -15 -38 -37 -83
-22 -44 -43 -96 -47 -116 -3 -20 -12 -41 -18 -48 -16 -16 -72 -135 -80 -172
-10 -40 -55 -138 -68 -146 -5 -3 -10 -10 -10 -15 0 -5 -4 -19 -9 -32 -5 -13
-9 -28 -9 -34 0 -6 -3 -9 -6 -5 -6 6 28 120 53 176 29 64 25 194 -7 211 -9 5
-77 21 -151 36 -74 15 -139 33 -145 41 -6 7 -15 36 -18 64 -8 62 -39 96 -94
105 -62 10 -64 13 -40 77 24 65 16 63 157 42z m-236 -120 c82 -18 151 -36 155
-40 4 -3 9 -35 12 -71 5 -62 -2 -78 -26 -54 -13 13 -324 62 -352 55 -19 -5
-23 -2 -19 12 3 10 11 48 17 85 12 67 12 67 39 57 14 -6 93 -25 174 -44z m944
3 c-2 -20 5 -24 59 -33 65 -12 84 -20 84 -37 0 -5 -21 -57 -47 -114 -33 -75
-51 -104 -64 -104 -16 0 -16 6 7 72 19 54 23 77 15 92 -9 21 -10 21 -10 1 -1
-11 -6 -27 -11 -35 -8 -11 -9 -8 -4 12 5 23 2 29 -19 39 -28 12 -45 41 -28 47
5 2 7 10 4 18 -5 14 4 64 12 64 3 0 4 -10 2 -22z m-97 -40 c0 -18 -78 -205
-124 -296 -24 -48 -47 -98 -51 -112 -13 -43 -125 -311 -172 -410 -25 -52 -56
-126 -70 -165 -14 -38 -36 -92 -49 -119 -13 -28 -24 -57 -24 -66 0 -9 -7 -25
-15 -36 -29 -38 -17 33 19 109 18 40 41 97 51 127 16 53 25 75 85 205 16 33
42 98 60 145 17 47 45 113 61 148 16 35 29 67 29 71 0 5 22 55 49 112 108 230
121 259 127 284 6 23 24 26 24 3z m50 -48 c0 -5 -5 -21 -11 -37 -7 -15 -15
-46 -20 -68 -19 -99 -95 -333 -104 -323 -2 2 6 30 17 63 39 117 79 258 75 269
-4 11 -67 -143 -67 -163 0 -22 -60 -160 -85 -197 -29 -42 -77 -140 -159 -329
-63 -144 -90 -221 -81 -235 7 -12 -42 -167 -56 -175 -5 -4 -9 3 -9 14 0 12 5
21 10 21 6 0 10 9 10 20 0 10 9 42 20 69 11 28 16 52 12 55 -9 5 -62 -96 -62
-119 0 -7 -5 -17 -11 -21 -17 -10 -3 38 33 116 17 36 38 88 48 115 20 58 121
287 158 360 14 28 29 66 33 85 7 35 40 121 82 213 22 51 38 48 17 -4 -7 -16
-10 -32 -7 -35 5 -5 18 30 58 153 13 39 27 69 31 67 5 -3 11 9 14 26 4 17 11
33 15 36 5 3 9 14 9 24 0 13 5 17 15 14 8 -4 15 -10 15 -14z m-975 -65 c280
-44 583 -103 590 -116 3 -4 -1 -13 -8 -21 -7 -7 -16 -22 -19 -33 -4 -11 -36
-105 -72 -210 -36 -104 -108 -316 -160 -470 -75 -220 -99 -281 -113 -283 -10
-1 -65 9 -123 22 -58 14 -225 48 -372 78 -211 42 -268 56 -268 68 0 9 21 81
46 160 67 212 162 512 195 614 16 49 29 92 29 97 0 5 9 33 21 64 20 53 22 55
57 55 20 0 109 -11 197 -25z m581 -205 c-4 -28 -11 -60 -16 -73 -8 -19 -9 -17
-8 13 1 37 18 110 26 110 2 0 2 -23 -2 -50z m520 37 c2 -2 -2 -17 -10 -33 -8
-16 -37 -87 -66 -159 -28 -71 -57 -135 -63 -142 -9 -8 -26 -9 -60 -3 -39 8
-53 6 -73 -6 -13 -9 -25 -20 -25 -25 -3 -20 -5 -26 -24 -66 -11 -23 -23 -43
-27 -43 -8 0 39 109 56 130 7 8 25 44 39 80 14 36 44 106 65 155 21 50 42 99
46 109 6 17 14 18 73 13 36 -4 67 -8 69 -10z m-561 -207 c-10 -33 -20 -58 -22
-56 -3 2 3 32 13 65 10 33 20 58 23 56 2 -3 -4 -32 -14 -65z m172 -246 c-57
-120 -114 -245 -127 -276 -13 -32 -25 -56 -27 -54 -10 10 115 304 188 441 48
89 63 115 66 111 2 -1 -43 -101 -100 -222z m-214 126 c-3 -12 -8 -19 -11 -16
-5 6 5 36 12 36 2 0 2 -9 -1 -20z m-20 -50 c-3 -12 -8 -19 -11 -16 -5 6 5 36
12 36 2 0 2 -9 -1 -20z m-26 -62 c-3 -8 -6 -5 -6 6 -1 11 2 17 5 13 3 -3 4
-12 1 -19z m48 -55 c-4 -24 -10 -32 -16 -26 -7 7 -6 25 3 54 14 50 24 29 13
-28z m-80 -13 c-4 -17 -9 -30 -11 -27 -2 2 -1 18 2 36 4 17 9 30 11 27 3 -2 2
-19 -2 -36z m316 -11 c-5 -13 -10 -19 -10 -12 -1 15 10 45 15 40 3 -2 0 -15
-5 -28z m-338 -74 c-7 -21 -13 -19 -13 6 0 11 4 18 10 14 5 -3 7 -12 3 -20z
m324 -7 c-3 -8 -6 -5 -6 6 -1 11 2 17 5 13 3 -3 4 -12 1 -19z m-344 -43 c-3
-9 -8 -14 -10 -11 -3 3 -2 9 2 15 9 16 15 13 8 -4z m301 -21 c-4 -14 -17 -47
-31 -72 -13 -26 -21 -38 -17 -27 3 11 10 34 15 50 9 32 30 75 36 75 2 0 0 -12
-3 -26z m-347 -126 c-3 -8 -6 -5 -6 6 -1 11 2 17 5 13 3 -3 4 -12 1 -19z m224
-171 c-10 -9 -11 -8 -5 6 3 10 9 15 12 12 3 -3 0 -11 -7 -18z"/>
<path d="M6675 9020 c19 -8 73 -14 64 -6 -2 2 -22 6 -44 9 -28 5 -34 4 -20 -3z"/>
<path d="M6614 9006 c11 -9 24 -16 30 -16 12 0 7 5 -24 19 -24 11 -24 11 -6
-3z"/>
<path d="M6855 8981 c69 -16 121 -24 291 -45 17 -2 36 -1 43 3 7 5 -25 11 -71
15 -46 4 -123 14 -173 22 -139 24 -178 26 -90 5z"/>
<path d="M7220 8930 c-9 -6 -10 -10 -3 -10 6 0 15 5 18 10 8 12 4 12 -15 0z"/>
<path d="M7228 8511 c-9 -22 -15 -41 -12 -41 8 0 35 62 32 72 -2 6 -11 -8 -20
-31z"/>
<path d="M7187 8431 c-24 -42 -21 -52 4 -13 12 18 20 35 17 37 -2 2 -12 -9
-21 -24z"/>
<path d="M2920 8943 c-51 -8 -177 -44 -228 -65 -81 -32 -92 -72 -43 -150 l29
-45 -34 -16 c-38 -19 -41 -31 -19 -84 19 -45 19 -53 -1 -53 -25 0 -13 -34 74
-220 l78 -165 35 0 c18 1 43 4 54 8 22 8 2 43 308 -541 92 -175 109 -192 182
-173 67 17 375 132 540 201 177 75 221 109 212 165 -3 19 -64 168 -135 332
-71 164 -145 334 -163 377 -32 75 -43 88 -80 99 -8 3 -32 49 -54 106 -22 56
-44 101 -50 101 -5 0 -46 -13 -89 -29 l-80 -28 -27 58 c-16 33 -33 59 -38 59
-5 0 -77 -18 -158 -40 -81 -22 -151 -40 -155 -40 -3 0 -14 21 -24 47 -10 25
-29 59 -42 75 -23 27 -37 30 -92 21z m85 -85 c14 -29 25 -58 25 -65 0 -7 -19
-17 -42 -24 -136 -37 -134 -36 -173 -105 -24 -43 -46 -69 -68 -79 -20 -10 -26
-11 -17 -3 8 7 21 21 29 31 25 31 -7 18 -43 -18 l-35 -35 -16 22 c-23 34 -18
48 22 65 28 11 42 12 55 4 10 -6 18 -9 18 -6 0 12 -54 112 -76 142 -13 17 -24
34 -24 36 0 9 57 28 165 56 154 41 151 41 180 -21z m383 -41 c3 -12 -3 -17
-20 -17 -13 -1 -70 -14 -128 -30 -58 -17 -152 -40 -210 -51 -58 -12 -109 -25
-113 -29 -4 -4 11 -58 33 -121 23 -63 44 -122 47 -131 3 -10 10 -18 15 -18 12
0 73 -129 112 -242 35 -97 118 -290 161 -369 30 -56 30 -58 8 -55 -20 3 -91
120 -136 223 -17 40 -33 71 -35 68 -7 -6 38 -135 64 -184 13 -25 24 -41 24
-36 0 5 9 -7 20 -28 17 -32 22 -46 29 -87 1 -3 6 2 11 10 7 11 10 8 10 -16 0
-17 3 -34 7 -37 11 -11 42 -107 35 -107 -4 0 -31 48 -59 108 -29 59 -91 179
-139 267 -48 88 -133 248 -189 355 -56 107 -115 217 -130 244 -16 27 -23 46
-17 42 7 -4 12 -2 12 6 1 7 16 -5 35 -26 24 -27 44 -68 66 -135 16 -53 39
-109 49 -126 10 -16 35 -61 56 -100 20 -38 43 -74 50 -78 8 -4 14 -15 14 -24
0 -9 3 -13 7 -9 4 3 12 -6 19 -21 7 -16 13 -21 13 -13 1 14 -22 56 -38 70 -13
11 -85 166 -86 182 0 9 -4 20 -8 24 -4 5 -5 0 -1 -10 5 -12 4 -17 -3 -13 -6 4
-15 19 -21 34 -28 77 -51 143 -65 188 -30 94 -43 125 -52 118 -4 -5 -2 2 4 15
6 12 14 22 16 22 8 0 41 -73 55 -120 17 -57 102 -241 109 -235 2 3 -6 24 -19
47 -23 40 -132 340 -126 345 1 2 79 21 172 43 93 22 201 48 239 59 81 23 99
22 103 -2z m20 -45 c2 -8 -9 -12 -30 -13 -18 -1 -44 -5 -58 -9 -15 -5 2 -6 45
-4 l70 4 -95 -24 c-52 -13 -150 -36 -217 -52 -68 -15 -123 -32 -123 -37 0 -9
17 -6 130 19 196 43 364 85 416 103 32 12 60 21 61 21 2 0 8 -12 14 -27 24
-59 49 -128 49 -134 0 -3 -45 -21 -100 -39 -56 -18 -99 -34 -97 -37 3 -2 40 7
83 21 98 31 134 40 134 32 0 -10 -65 -34 -315 -118 -132 -44 -245 -85 -252
-90 -11 -9 -38 38 -58 102 -4 12 -9 19 -12 16 -3 -2 10 -42 28 -88 17 -46 32
-91 31 -100 0 -10 3 -18 8 -18 4 0 11 -11 14 -25 7 -26 113 -295 194 -490 42
-103 75 -211 59 -195 -8 8 -47 114 -47 128 0 14 -60 143 -71 152 -3 3 -20 43
-39 90 -19 47 -38 88 -43 91 -5 4 -6 12 -2 19 5 8 4 11 -3 6 -7 -4 -23 31 -45
101 -19 60 -62 160 -95 223 -70 135 -119 272 -98 278 5 2 23 -41 41 -95 36
-111 64 -173 78 -173 5 0 5 5 -1 13 -5 6 -26 61 -47 121 -20 60 -40 117 -45
127 -8 15 -4 18 33 24 23 3 80 17 127 31 103 29 252 63 264 60 6 -1 12 -8 14
-14z m-697 -56 c11 -21 16 -35 10 -31 -12 7 -51 79 -51 92 0 10 16 -12 41 -61z
m138 -122 c25 -41 26 -51 7 -35 -13 11 -40 71 -31 71 1 0 12 -16 24 -36z
m1051 -394 c84 -195 156 -367 160 -383 10 -32 8 -33 -115 -83 -44 -17 -125
-51 -180 -74 -55 -23 -135 -55 -177 -71 l-78 -28 -21 22 c-12 12 -41 63 -65
112 -23 50 -43 83 -44 75 0 -8 -9 5 -20 29 -11 23 -17 48 -13 54 3 5 2 7 -4 4
-12 -8 -69 113 -117 248 -19 55 -49 137 -65 182 -28 76 -29 83 -13 91 9 5 87
32 172 61 85 28 211 71 280 95 94 33 128 41 136 33 6 -7 80 -172 164 -367z
m-1047 180 c39 -80 80 -161 93 -182 23 -37 154 -288 295 -565 42 -84 74 -153
70 -153 -13 0 -40 34 -55 70 -8 19 -82 163 -165 320 -83 156 -149 286 -147
288 2 2 -6 14 -19 28 -23 24 -23 24 -70 8 -40 -13 -49 -13 -57 -2 -24 34 -152
318 -146 323 2 2 26 9 53 17 36 11 54 12 64 4 8 -6 46 -76 84 -156z m480 -700
c25 -88 20 -94 -13 -15 -34 78 -35 86 -17 79 8 -3 21 -32 30 -64z"/>
<path d="M2824 8523 c14 -28 30 -55 36 -58 18 -11 -19 68 -41 90 -19 18 -18
14 5 -32z"/>
<path d="M3065 8219 c5 -33 59 -159 69 -159 2 0 -10 37 -28 83 -45 114 -47
117 -41 76z"/>
<path d="M3151 8038 c-1 -4 8 -22 20 -40 12 -18 18 -25 15 -15 -3 10 -6 25 -6
33 0 9 -4 13 -9 10 -5 -4 -12 0 -14 6 -3 7 -6 10 -6 6z"/>
<path d="M3192 7940 c0 -14 2 -19 5 -12 2 6 2 18 0 25 -3 6 -5 1 -5 -13z"/>
<path d="M3248 8733 c7 -3 16 -2 19 1 4 3 -2 6 -13 5 -11 0 -14 -3 -6 -6z"/>
<path d="M3553 8726 c-18 -6 -35 -15 -39 -19 -9 -9 50 9 73 22 23 13 7 12 -34
-3z"/>
<path d="M3580 8690 c-18 -12 -2 -12 25 0 13 6 15 9 5 9 -8 0 -22 -4 -30 -9z"/>
<path d="M3595 8640 c-3 -6 1 -7 9 -4 18 7 21 14 7 14 -6 0 -13 -4 -16 -10z"/>
<path d="M3438 8633 c7 -3 16 -2 19 1 4 3 -2 6 -13 5 -11 0 -14 -3 -6 -6z"/>
<path d="M3036 8537 c3 -10 9 -15 12 -12 3 3 0 11 -7 18 -10 9 -11 8 -5 -6z"/>
<path d="M3256 8055 c21 -68 73 -179 73 -159 1 7 -17 49 -39 95 -22 46 -38 75
-34 64z"/>
<path d="M8427 8532 c-15 -11 -54 -44 -86 -74 l-58 -55 -41 53 c-23 30 -46 54
-50 54 -4 0 -33 -22 -64 -50 -31 -27 -61 -50 -68 -50 -22 0 -795 -731 -816
-773 -28 -53 -13 -82 127 -242 207 -237 480 -526 506 -536 45 -17 63 -4 369
266 87 78 251 220 364 317 375 323 425 370 428 407 3 27 -3 40 -29 67 l-31 32
41 49 c67 80 60 98 -101 251 -105 99 -120 106 -176 72 -18 -11 -36 -20 -41
-20 -4 0 -57 56 -116 125 -59 69 -113 125 -119 125 -6 0 -23 -8 -39 -18z m310
-323 c68 -70 123 -132 123 -140 0 -7 -14 -28 -32 -46 -31 -32 -53 -41 -60 -25
-1 4 -39 39 -83 77 -44 38 -97 90 -117 115 -21 25 -73 81 -117 124 l-79 80
-27 -18 c-56 -37 -37 -1 35 66 l74 70 81 -88 c44 -49 135 -146 202 -215z
m-452 138 c33 -38 77 -90 98 -117 l39 -49 -33 -46 c-23 -32 -35 -42 -39 -32
-3 8 -23 35 -45 60 -22 25 -47 53 -56 63 -8 11 -43 50 -77 87 l-63 68 38 44
38 44 20 -27 c11 -15 47 -58 80 -95z m-139 -49 c118 -122 166 -180 249 -301
108 -157 145 -218 144 -237 0 -13 -1 -13 -7 1 -5 13 -42 -17 -164 -135 -87
-83 -158 -156 -158 -163 0 -6 -5 -15 -12 -19 -7 -5 -8 -3 -3 6 5 9 4 11 -3 6
-7 -4 -12 -13 -12 -19 0 -7 -10 -17 -22 -22 -13 -6 -22 -17 -20 -24 1 -7 -2
-9 -9 -6 -13 9 -81 -54 -72 -68 3 -6 1 -7 -5 -3 -6 4 -47 -25 -93 -66 -45 -40
-107 -94 -138 -120 l-56 -47 -91 90 c-49 49 -93 87 -96 84 -3 -4 -9 -1 -14 6
-4 8 -3 10 4 5 23 -14 12 7 -25 48 -86 97 -125 137 -130 132 -3 -3 7 -17 21
-31 24 -24 31 -35 22 -35 -1 0 -31 32 -65 70 -67 75 -76 94 -16 33 20 -21 35
-33 33 -27 -6 20 -102 124 -114 124 -7 0 -15 8 -18 17 -7 18 73 101 419 428
246 233 367 345 375 345 3 0 37 -33 76 -72z m380 -98 c21 -25 69 -72 108 -105
125 -106 190 -175 176 -188 -9 -9 -27 5 -80 63 -38 41 -71 72 -74 69 -3 -3 23
-36 59 -74 52 -54 63 -71 54 -82 -7 -7 -14 -11 -17 -8 -3 2 -10 -2 -16 -11
-13 -17 -24 -9 -99 74 -21 23 -43 42 -50 42 -9 0 85 -106 115 -130 5 -3 -20
-26 -53 -51 -34 -24 -71 -51 -82 -59 -19 -14 -19 -13 -7 7 12 19 9 29 -30 94
-24 41 -67 109 -97 152 -52 77 -53 79 -36 102 21 29 30 31 38 8 7 -21 65 -91
65 -79 0 4 -14 27 -31 52 -17 25 -29 54 -27 67 3 19 8 15 36 -27 17 -27 32
-43 32 -36 0 16 -112 184 -151 225 -33 35 -36 45 -14 45 8 0 41 -34 72 -76
122 -160 200 -247 215 -238 5 3 -22 38 -59 78 -61 63 -175 205 -197 246 -10
18 98 -97 150 -160z m372 18 c97 -93 132 -131 132 -142 0 -4 -19 -27 -41 -51
-33 -36 -45 -43 -55 -34 -8 6 -14 17 -14 24 0 21 -74 128 -133 192 l-57 61 27
21 c16 11 32 21 36 21 5 0 52 -42 105 -92z m2 -217 c0 -10 25 -47 56 -82 l57
-63 -55 -50 c-55 -53 -296 -263 -428 -376 -41 -35 -78 -69 -82 -75 -5 -6 -8
-6 -8 2 0 7 13 22 30 34 16 12 26 27 23 32 -4 6 -1 7 7 2 10 -6 12 -4 6 11 -4
10 -4 15 0 12 3 -4 23 10 44 30 41 40 66 63 215 197 55 50 103 95 107 100 3 6
16 21 27 34 12 13 21 28 21 32 0 14 -18 19 -24 7 -5 -10 -7 -10 -12 0 -3 7
-19 39 -35 70 l-29 57 32 27 c35 28 48 28 48 -1z m-96 -147 c3 -8 2 -12 -4 -9
-6 3 -10 10 -10 16 0 14 7 11 14 -7z m-20 -20 c3 -9 0 -24 -7 -34 -23 -33
-285 -259 -293 -252 -4 4 -4 2 -1 -4 3 -6 -35 -44 -85 -85 -50 -41 -130 -110
-177 -154 -85 -80 -177 -158 -216 -184 -20 -14 17 21 90 84 77 67 165 152 165
159 0 12 -168 -132 -284 -242 -27 -26 -44 -38 -38 -27 11 21 153 154 230 215
31 25 39 36 30 43 -9 6 -7 7 6 3 11 -4 26 0 37 10 11 10 19 14 19 10 0 -4 5
-4 11 0 7 4 7 9 1 13 -5 3 5 20 22 36 17 17 28 26 24 21 -20 -25 -5 -27 20 -3
16 15 31 25 34 22 3 -4 41 30 84 75 44 44 85 78 92 75 8 -3 12 2 10 13 -2 10
3 16 10 14 12 -2 203 160 210 179 7 19 -28 8 -38 -11 -6 -11 -17 -19 -25 -18
-16 3 -82 -48 -134 -105 -20 -22 -44 -43 -53 -48 -10 -5 17 26 60 70 42 44 96
89 120 101 23 12 45 26 48 31 8 14 21 11 28 -7z m45 -18 c9 -10 8 -15 -2 -19
-8 -3 -13 3 -13 14 0 23 0 23 15 5z m-129 -49 c0 -2 -19 -18 -42 -36 l-43 -32
39 35 c37 34 46 40 46 33z m59 -19 c-2 -2 -17 -14 -34 -28 l-30 -25 24 28 c14
15 29 27 34 27 6 0 8 -1 6 -2z m-299 -62 c0 -2 -8 -10 -17 -17 -16 -13 -17
-12 -4 4 13 16 21 21 21 13z m160 -60 c0 -2 -8 -10 -17 -17 -16 -13 -17 -12
-4 4 13 16 21 21 21 13z m-146 -38 c-3 -7 -24 -26 -47 -41 l-42 -28 45 41 c50
44 52 45 44 28z m106 9 c0 -2 -10 -12 -22 -23 l-23 -19 19 23 c18 21 26 27 26
19z m-81 -103 c-18 -20 -52 -49 -74 -66 -22 -17 -14 -7 18 22 31 28 54 57 51
62 -4 6 -2 8 4 4 6 -3 13 -2 17 4 3 5 9 10 13 10 3 0 -10 -16 -29 -36z m-224
16 c-3 -5 -12 -10 -18 -10 -7 0 -6 4 3 10 19 12 23 12 15 0z m75 -4 c0 -2 -8
-10 -17 -17 -16 -13 -17 -12 -4 4 13 16 21 21 21 13z m50 0 c0 -2 -8 -10 -17
-17 -16 -13 -17 -12 -4 4 13 16 21 21 21 13z m-120 -69 c0 -2 -17 -19 -37 -38
l-38 -34 34 38 c33 34 41 42 41 34z m78 -60 c-14 -12 -68 -58 -118 -102 -50
-44 -95 -80 -100 -80 -4 0 -20 -12 -35 -28 -33 -33 -145 -110 -151 -104 -2 2
21 21 51 41 31 20 73 53 95 72 22 20 40 32 40 28 0 -5 6 -2 13 7 7 9 41 41 77
72 36 32 65 63 65 70 1 6 7 11 14 9 7 -1 24 7 38 18 35 27 45 25 11 -3z m-840
-62 c-3 -4 -16 9 -28 27 l-23 33 28 -27 c16 -15 26 -30 23 -33z m862 -8 c0 -2
-10 -12 -22 -23 l-23 -19 19 23 c18 21 26 27 26 19z m-430 -170 c0 -2 -10 -12
-22 -23 l-23 -19 19 23 c18 21 26 27 26 19z m70 -147 c-36 -33 -80 -67 -99
-76 -30 -14 -35 -15 -49 -1 -14 14 -13 15 6 10 14 -3 22 -1 22 8 0 7 3 10 6 6
3 -3 18 5 33 19 14 13 31 22 38 20 6 -3 13 -2 15 2 5 11 78 72 86 72 4 -1 -22
-28 -58 -60z"/>
<path d="M8537 8065 c25 -36 63 -72 63 -59 0 6 -19 28 -42 49 -36 35 -38 36
-21 10z"/>
<path d="M8441 8040 c29 -45 29 -45 29 -34 0 5 -12 23 -26 39 l-26 30 23 -35z"/>
<path d="M8545 8000 c21 -24 26 -25 19 -6 -3 8 -13 17 -22 21 -13 5 -13 2 3
-15z"/>
<path d="M8630 8004 c1 -13 29 -48 34 -43 2 2 -4 15 -15 28 -10 13 -19 19 -19
15z"/>
<path d="M8570 7920 c6 -11 13 -20 16 -20 2 0 0 9 -6 20 -6 11 -13 20 -16 20
-2 0 0 -9 6 -20z"/>
<path d="M8690 7933 c0 -13 29 -38 35 -31 3 3 -4 13 -15 23 -11 10 -20 13 -20
8z"/>
<path d="M8540 7870 c11 -16 26 -33 32 -36 7 -4 -1 9 -16 29 -34 44 -46 50
-16 7z"/>
<path d="M8595 7800 c3 -5 8 -10 11 -10 2 0 4 5 4 10 0 6 -5 10 -11 10 -5 0
-7 -4 -4 -10z"/>
<path d="M8515 7590 c-10 -11 -16 -22 -13 -25 2 -3 14 6 26 20 26 30 13 34
-13 5z"/>
<path d="M8346 7434 c-23 -23 -20 -30 4 -9 11 10 20 20 20 22 0 7 -9 2 -24
-13z"/>
<path d="M8287 7406 c-4 -10 -1 -13 9 -9 7 3 14 9 14 14 0 14 -17 10 -23 -5z"/>
<path d="M1989 8315 c-29 -25 -59 -45 -67 -45 -7 0 -39 18 -69 40 -31 22 -66
40 -78 40 -27 0 -56 -31 -89 -98 -40 -80 -91 -156 -180 -271 -103 -133 -136
-182 -136 -203 0 -9 17 -29 37 -46 35 -28 36 -30 24 -60 -21 -49 -11 -74 42
-107 150 -93 312 -198 381 -248 43 -31 82 -57 86 -57 5 0 21 22 37 50 l28 49
105 -56 c58 -31 152 -83 210 -115 128 -71 149 -73 202 -15 67 72 337 548 345
608 5 32 1 39 -35 70 -22 19 -187 132 -367 253 -242 162 -329 216 -338 207
-18 -18 -27 -13 -38 19 -15 42 -38 38 -100 -15z m71 -35 c0 -38 -11 -74 -42
-145 -24 -52 -45 -95 -48 -95 -3 0 -15 39 -27 86 l-21 86 61 59 c34 32 65 58
70 59 4 0 7 -23 7 -50z m-270 33 c0 -5 23 -24 50 -43 27 -19 50 -38 50 -41 0
-13 -33 -19 -45 -9 -6 5 -14 8 -17 5 -3 -3 -11 3 -19 12 -13 17 -13 17 5 3 15
-12 18 -12 15 -2 -6 19 -63 42 -79 32 -18 -11 -5 -27 41 -50 21 -11 39 -23 39
-26 0 -3 -13 -23 -29 -43 -61 -78 -215 -300 -253 -364 -43 -74 -45 -75 -105
-34 -18 12 -33 29 -33 38 0 9 44 72 98 140 96 120 168 228 227 337 15 28 34
52 42 52 7 0 13 -3 13 -7z m369 -47 c9 -7 126 -88 261 -179 396 -267 403 -272
407 -283 2 -5 -13 -37 -33 -69 -34 -56 -173 -295 -198 -340 -6 -11 -24 -39
-41 -62 -30 -42 -48 -52 -60 -33 -3 5 -144 102 -313 214 -169 113 -318 214
-331 226 -24 20 -24 22 -8 55 9 18 50 88 92 156 43 67 97 160 121 207 40 78
70 122 82 122 3 0 13 -6 21 -14z m-285 -118 c-33 -74 -124 -234 -124 -218 0 8
-21 -21 -47 -65 -25 -44 -49 -82 -52 -85 -3 -3 -7 -12 -9 -20 -2 -11 1 -10 12
3 14 18 17 17 68 -18 29 -20 65 -47 80 -61 37 -32 204 -148 301 -209 26 -16
45 -35 43 -41 -5 -14 48 -39 63 -30 5 4 13 2 16 -4 4 -6 23 -22 43 -35 94 -61
76 -61 -45 1 -113 59 -129 70 -115 81 15 11 14 12 -11 13 -19 0 -26 4 -21 12
4 6 3 8 -4 4 -5 -3 -23 4 -39 17 -15 13 -72 53 -125 90 -53 37 -100 72 -103
77 -4 6 -11 7 -17 4 -5 -3 -27 12 -49 35 -22 22 -44 41 -50 41 -5 0 6 -14 26
-31 41 -36 48 -60 8 -29 -16 12 -53 36 -83 54 l-56 32 -19 -22 c-46 -53 -19
12 41 101 22 33 65 96 94 140 87 128 130 185 141 185 6 0 1 -12 -10 -26 -11
-14 -18 -31 -15 -38 2 -6 -11 -28 -29 -47 -29 -29 -86 -112 -122 -178 -6 -10
-17 -26 -24 -35 -7 -8 -11 -20 -9 -27 2 -6 15 6 29 27 71 107 109 172 109 185
0 11 2 11 8 1 6 -8 15 0 31 28 12 22 20 44 17 49 -3 4 3 16 14 26 11 10 20 22
20 27 0 11 24 37 29 32 2 -2 -4 -23 -15 -46z m51 -45 c21 -71 15 -101 -34
-178 -22 -33 -51 -84 -66 -112 -32 -64 -57 -81 -88 -59 -65 45 -64 43 -33 75
17 18 25 34 21 42 -6 8 -4 10 5 4 9 -6 12 -4 8 7 -4 8 -2 21 4 29 8 11 9 10 4
-3 -3 -10 -4 -18 -1 -18 6 0 113 175 137 225 12 25 23 45 24 45 2 0 10 -26 19
-57z m-241 -415 c5 2 18 -6 30 -16 11 -11 28 -19 36 -19 13 0 47 -20 130 -76
14 -10 65 -44 115 -77 49 -33 86 -60 81 -60 -13 0 -135 71 -153 89 -9 9 -21
16 -27 17 -24 1 -96 45 -90 55 3 6 0 10 -7 8 -26 -3 -36 1 -62 27 -14 14 -32
26 -39 28 -20 2 -118 68 -118 78 0 5 21 -6 48 -24 26 -18 51 -31 56 -30z m142
43 c-3 -4 13 -21 35 -37 91 -66 89 -71 -3 -9 -57 38 -64 46 -52 58 9 9 26 -2
20 -12z m-207 -80 c53 -27 150 -80 216 -118 66 -38 165 -93 220 -123 134 -71
184 -99 221 -127 17 -13 36 -23 42 -23 7 0 12 -5 12 -10 0 -14 -196 88 -246
127 -22 17 -52 33 -67 36 -26 4 -31 0 -48 -39 -10 -24 -23 -44 -29 -44 -6 0
-8 -5 -5 -10 8 -12 -63 26 -86 46 -20 18 -155 106 -269 175 -85 52 -130 86
-130 99 0 15 42 60 57 60 8 0 58 -22 112 -49z m396 -70 c-3 -3 -18 8 -33 23
l-27 29 32 -23 c18 -13 30 -26 28 -29z m36 -18 c13 -16 12 -17 -3 -4 -10 7
-18 15 -18 17 0 8 8 3 21 -13z m114 -69 c17 -14 21 -21 10 -15 -11 5 -33 22
-50 36 -16 14 -21 21 -10 16 11 -6 34 -22 50 -37z m246 -211 c13 -16 12 -17
-3 -4 -10 7 -18 15 -18 17 0 8 8 3 21 -13z"/>
<path d="M1605 7800 c3 -5 11 -10 16 -10 6 0 7 5 4 10 -3 6 -11 10 -16 10 -6
0 -7 -4 -4 -10z"/>
<path d="M1760 7696 c0 -2 8 -10 18 -17 15 -13 16 -12 3 4 -13 16 -21 21 -21
13z"/>
<path d="M1720 7786 c0 -2 12 -12 28 -21 l27 -18 -19 21 c-17 20 -36 29 -36
18z"/>
<path d="M1765 7630 c10 -11 20 -20 23 -20 3 0 -3 9 -13 20 -10 11 -20 20 -23
20 -3 0 3 -9 13 -20z"/>
<path d="M1265 7270 c-22 -5 -94 -18 -160 -31 -218 -40 -248 -70 -190 -185 14
-27 25 -51 25 -54 0 -3 -20 -11 -45 -18 -34 -9 -48 -19 -55 -38 -12 -31 -7
-42 129 -268 119 -197 299 -512 476 -831 159 -287 189 -333 221 -345 29 -12
187 27 729 177 273 76 301 86 314 125 6 17 8 41 5 53 -3 13 -1 26 5 29 15 10
14 52 -3 85 -27 51 -389 614 -541 841 -71 105 -71 105 -110 104 -22 -1 -52 -5
-67 -9 -25 -7 -30 -2 -75 70 l-48 76 -45 -6 c-86 -13 -82 -15 -118 58 -18 37
-39 70 -47 73 -7 3 -60 -4 -116 -15 -56 -12 -103 -20 -104 -19 -2 2 -14 26
-29 55 -40 80 -63 91 -151 73z m92 -47 c22 -29 54 -93 46 -93 -15 0 -188 -30
-234 -41 l-47 -10 -11 -60 c-8 -38 -18 -62 -28 -66 -21 -8 -54 32 -93 112 -16
33 -29 54 -29 47 -1 -18 40 -115 52 -123 5 -4 10 -25 11 -47 2 -33 0 -39 -11
-31 -7 7 -27 9 -48 5 -26 -5 -35 -12 -35 -27 0 -11 4 -18 9 -15 5 3 11 -11 15
-32 3 -20 15 -48 26 -62 12 -15 18 -18 14 -7 -18 50 41 -30 101 -138 16 -27
40 -70 55 -95 15 -25 58 -101 95 -170 38 -69 108 -194 157 -278 48 -84 88
-155 88 -158 0 -3 33 -63 74 -134 41 -71 71 -132 65 -135 -5 -4 -9 -11 -9 -17
0 -6 7 -5 17 3 15 13 15 12 6 -6 -6 -11 -8 -27 -6 -35 3 -8 -5 -1 -16 15 -12
18 -18 38 -15 50 4 15 3 16 -4 6 -7 -10 -22 9 -57 75 -26 49 -71 132 -100 184
-29 52 -54 100 -56 105 -11 29 -379 655 -454 771 -81 125 -81 126 9 139 56 9
57 16 15 115 -26 63 -29 75 -16 87 13 14 313 80 371 82 17 1 35 -6 43 -16z
m320 -137 l30 -64 -126 -30 c-183 -45 -267 -62 -295 -62 -15 0 -26 -5 -26 -10
0 -6 10 -8 23 -5 38 9 216 44 357 70 74 13 152 28 173 33 34 8 40 7 51 -12 7
-11 26 -44 43 -73 l31 -51 -26 -11 c-15 -5 -110 -32 -212 -59 -213 -58 -296
-91 -309 -124 l-8 -22 -13 24 c-7 14 -16 27 -19 30 -17 13 -49 69 -61 105 -7
22 -19 44 -26 48 -8 4 -14 17 -14 27 0 11 -6 20 -14 20 -25 0 -27 29 -3 34 12
2 46 9 75 15 30 6 68 11 85 12 31 0 31 1 8 10 -13 5 -31 7 -40 4 -9 -2 -47 -9
-85 -14 -93 -13 -104 -30 -56 -85 30 -34 121 -188 201 -341 53 -103 226 -401
255 -440 12 -16 52 -84 89 -150 37 -66 79 -139 92 -162 14 -24 23 -47 21 -53
-3 -9 -89 129 -142 230 -16 30 -47 82 -70 115 -23 33 -62 94 -85 135 -24 41
-59 101 -78 132 -19 32 -60 106 -92 165 -79 147 -142 257 -188 326 -57 89 -71
119 -75 167 l-3 45 150 23 c120 19 317 53 346 61 3 0 19 -28 36 -63z m-547
-143 c0 5 17 -13 38 -40 42 -53 107 -166 205 -353 35 -69 79 -147 95 -175 17
-27 41 -68 53 -90 12 -22 40 -67 63 -100 74 -109 264 -449 259 -463 -4 -9 -12
-2 -26 20 -25 41 -93 159 -122 213 -39 74 -79 140 -91 150 -6 6 -35 51 -64
100 -30 50 -59 97 -66 105 -7 8 -64 113 -127 233 -64 120 -138 249 -164 288
-26 39 -52 79 -58 90 -5 10 -13 19 -18 19 -4 0 -5 5 -1 11 4 8 9 7 15 -2 5 -8
9 -10 9 -6z m31 -116 c25 -40 62 -101 81 -137 19 -36 50 -92 68 -125 18 -33
52 -99 75 -146 24 -47 50 -92 58 -100 8 -9 25 -35 37 -60 13 -24 31 -56 42
-71 11 -16 17 -28 13 -28 -3 0 4 -10 16 -22 11 -13 25 -33 30 -46 5 -13 12
-21 17 -18 14 8 155 -285 162 -336 5 -34 3 -48 -5 -48 -16 0 -91 113 -144 215
-22 44 -49 91 -60 105 -43 57 -241 397 -241 413 0 9 -68 129 -177 314 -47 79
-83 147 -81 153 7 21 167 -239 263 -425 44 -85 96 -180 135 -245 75 -126 120
-205 120 -212 0 -5 4 -7 9 -4 5 3 32 -40 60 -96 62 -126 111 -202 111 -172 0
11 -15 45 -32 75 -18 30 -52 94 -76 142 -24 48 -47 85 -53 82 -5 -4 -9 -2 -9
3 0 5 -17 35 -38 68 -71 109 -146 238 -197 339 -98 191 -235 428 -256 440 -5
4 -9 13 -9 21 0 27 34 -6 81 -79z m946 20 c188 -282 583 -902 583 -916 0 -8
-503 -136 -639 -162 l-64 -12 -21 28 c-27 36 -215 327 -220 340 -2 5 -7 7 -11
3 -4 -4 -2 -15 6 -24 17 -20 32 -47 61 -104 13 -26 33 -59 46 -74 22 -29 28
-46 15 -46 -5 0 -30 39 -57 88 -28 48 -64 110 -81 137 -18 28 -42 68 -55 90
l-22 40 28 -35 c16 -19 30 -38 30 -42 1 -5 2 -12 3 -18 1 -13 21 -13 21 1 0 5
-17 36 -38 67 -21 31 -67 106 -102 166 -35 60 -66 104 -68 98 -2 -6 6 -29 18
-52 12 -23 18 -40 13 -37 -20 13 -123 235 -125 272 -3 37 0 41 35 58 22 10
109 38 195 62 87 24 204 57 262 73 140 40 159 40 187 -1z m-1045 -44 c22 -34
71 -120 168 -298 18 -33 36 -62 39 -65 4 -3 18 -28 31 -55 37 -75 119 -217
173 -300 26 -40 47 -76 47 -79 0 -4 18 -35 39 -69 22 -34 43 -74 46 -89 4 -16
11 -28 15 -28 8 0 52 -71 63 -102 14 -39 -12 -14 -47 45 -50 83 -47 78 -107
187 -29 52 -61 107 -71 122 -17 25 -123 213 -188 333 -120 223 -186 340 -215
380 -32 44 -37 55 -27 55 5 0 20 -17 34 -37z m557 -523 c11 -24 11 -24 -3 -6
-9 11 -16 24 -16 30 0 12 5 7 19 -24z m1051 -437 c0 -5 -5 -15 -10 -23 -8 -12
-10 -11 -10 8 0 12 5 22 10 22 6 0 10 -3 10 -7z m-270 -54 c-40 -16 -365 -99
-386 -99 -10 0 58 21 151 45 94 24 184 49 200 54 40 12 67 12 35 0z m-593 -86
c-10 -10 -16 0 -22 38 l-6 34 17 -32 c10 -18 14 -36 11 -40z m53 -17 c0 -2 -7
-7 -16 -10 -8 -3 -12 -2 -9 4 6 10 25 14 25 6z m-205 -96 c-3 -5 -2 -10 2 -10
5 0 14 -10 22 -22 13 -22 13 -22 -12 1 -23 20 -28 41 -11 41 3 0 2 -4 -1 -10z"/>
<path d="M1570 7099 c-38 -10 -285 -53 -362 -64 -52 -7 -61 -23 -35 -60 13
-16 14 -15 10 12 l-5 29 84 13 c240 36 451 82 368 80 -14 -1 -41 -5 -60 -10z"/>
<path d="M1610 7049 c-19 -5 -70 -16 -114 -25 -51 -11 -73 -19 -65 -25 8 -5
15 -4 17 1 2 6 15 10 30 10 55 0 192 25 189 34 -5 14 -17 15 -57 5z"/>
<path d="M1800 6990 c-21 -7 -21 -8 -5 -9 11 0 27 4 35 9 18 11 5 11 -30 0z"/>
<path d="M1678 6953 c7 -3 16 -2 19 1 4 3 -2 6 -13 5 -11 0 -14 -3 -6 -6z"/>
<path d="M1341 6760 c14 -31 19 -36 19 -24 0 6 -7 19 -16 30 -14 18 -14 18 -3
-6z"/>
<path d="M1365 6770 c-8 -13 5 -13 25 0 13 8 13 10 -2 10 -9 0 -20 -4 -23 -10z"/>
<path d="M1460 6585 c0 -5 5 -17 10 -25 5 -8 10 -10 10 -5 0 6 -5 17 -10 25
-5 8 -10 11 -10 5z"/>
<path d="M5072 7247 c-6 -6 -13 -24 -17 -39 -7 -26 -10 -27 -50 -21 l-44 6
-10 -40 -11 -39 -72 0 -73 1 -9 -39 c-10 -38 -10 -38 -51 -32 -102 16 -225 19
-257 6 -49 -20 -98 -69 -123 -125 -20 -45 -124 -354 -189 -560 -170 -546 -332
-1255 -391 -1712 -13 -98 23 -135 256 -268 73 -41 137 -76 142 -78 21 -7 -55
-126 -133 -210 -95 -101 -177 -163 -274 -206 l-67 -31 -24 28 c-43 48 -74 117
-129 281 -31 92 -64 173 -78 189 -13 16 -32 59 -42 96 -11 40 -26 72 -37 79
-15 9 -19 24 -19 68 0 31 -7 76 -15 99 -25 70 -20 102 25 161 50 67 53 107 11
150 -22 22 -39 29 -68 29 -51 0 -80 -22 -108 -82 -27 -59 -29 -55 -49 110 -18
145 -42 182 -122 182 -111 0 -147 -145 -75 -307 17 -39 31 -74 31 -78 0 -11
-69 -35 -101 -35 -48 0 -166 62 -241 127 l-68 58 0 158 c0 155 -1 158 -25 183
-22 22 -30 24 -87 19 -35 -3 -148 -10 -253 -15 -180 -10 -364 -21 -951 -55
-137 -8 -256 -15 -262 -15 -7 0 -21 -9 -32 -20 -20 -20 -20 -33 -20 -759 0
-406 3 -753 6 -770 11 -53 32 -59 249 -76 109 -9 200 -17 202 -19 3 -3 -8 -58
-36 -181 -6 -28 -10 -30 -61 -33 -36 -2 -59 -8 -67 -19 -10 -13 -65 -17 -365
-28 -194 -6 -361 -15 -371 -20 -49 -21 -64 -134 -24 -181 22 -25 31 -28 118
-33 l94 -6 5 -1196 c5 -1138 6 -1198 23 -1217 20 -22 73 -33 452 -97 116 -19
244 -42 285 -49 41 -8 118 -22 170 -31 52 -9 154 -28 225 -42 111 -21 147 -24
245 -19 64 4 125 8 135 10 21 4 101 12 208 21 34 3 78 8 97 10 19 3 64 7 100
10 36 3 97 10 135 15 39 6 193 24 343 40 151 17 282 35 293 40 10 6 23 19 29
30 7 12 10 420 10 1218 l0 1199 151 9 c148 9 152 10 175 37 37 43 34 119 -5
158 l-29 29 -136 0 -136 0 0 34 c0 24 -5 36 -17 40 -34 10 -903 75 -1358 102
-154 9 -282 18 -283 20 -2 1 0 26 5 56 l8 53 40 -3 c325 -21 680 -28 701 -14
29 19 31 57 25 475 -3 235 -3 427 0 427 3 0 39 -11 80 -25 95 -33 253 -65 317
-65 l49 0 8 -52 c5 -29 9 -96 10 -148 2 -84 7 -111 47 -230 123 -368 281 -545
496 -558 95 -5 207 11 285 42 l58 24 -5 -26 c-17 -88 -30 -261 -30 -425 l-1
-189 31 -27 c23 -21 53 -32 117 -46 48 -10 87 -21 87 -25 0 -4 -17 -11 -37
-15 -58 -11 -164 -63 -202 -98 -51 -49 -71 -100 -71 -187 0 -81 23 -181 66
-282 36 -85 31 -91 -64 -83 -88 8 -185 -11 -237 -46 -29 -20 -87 -96 -100
-131 -11 -29 32 -85 90 -118 55 -32 223 -80 279 -80 47 0 76 -11 76 -27 0 -56
94 -121 208 -144 99 -19 248 -7 354 29 112 38 186 82 265 158 55 54 63 66 63
98 0 52 -34 111 -98 174 -30 30 -61 71 -68 91 -7 20 -11 37 -10 38 1 1 74 -8
161 -20 l160 -23 8 -74 c5 -41 10 -77 13 -79 2 -3 23 -7 47 -10 l42 -6 3 -114
c2 -105 1 -115 -18 -128 -19 -13 -20 -24 -20 -192 l0 -178 -37 -7 c-21 -3 -61
-6 -90 -6 -62 0 -179 -15 -288 -37 -44 -8 -124 -16 -179 -17 l-98 -1 -32 -36
c-38 -44 -108 -84 -160 -92 -21 -3 -49 -13 -63 -22 -28 -19 -53 -71 -53 -111
0 -16 -15 -43 -39 -70 -55 -63 -63 -130 -23 -192 11 -17 12 -22 1 -22 -28 0 9
-21 62 -35 68 -18 142 -18 193 0 22 8 44 11 50 8 6 -3 8 -3 4 1 -4 5 2 25 13
44 10 20 19 46 19 58 0 21 0 21 318 16 174 -2 333 0 352 5 27 7 36 15 38 35 2
16 13 30 28 37 27 12 26 4 -2 -29 -32 -38 -21 -226 15 -238 6 -2 11 1 11 7 0
7 10 7 30 -1 27 -9 98 -7 180 5 14 2 25 10 25 18 0 8 4 19 7 25 30 48 13 161
-30 201 -23 22 -24 25 -7 22 11 -3 29 -21 40 -41 25 -47 22 -47 372 -50 235
-3 270 -1 260 11 -10 12 -9 13 6 8 10 -4 27 -7 37 -7 18 0 45 -54 35 -70 -3
-5 4 -15 15 -23 11 -7 17 -16 14 -19 -13 -14 64 -27 144 -23 102 4 113 6 106
16 -2 4 0 10 6 14 5 3 10 2 10 -3 0 -6 9 -8 20 -5 13 3 19 13 19 32 -1 14 5
44 12 67 15 50 7 84 -30 126 -19 22 -30 49 -35 82 -11 84 -50 121 -135 128
-28 2 -52 11 -66 24 -11 11 -52 30 -90 42 -43 13 -75 29 -83 42 -10 16 -23 20
-70 20 -31 0 -72 4 -90 9 -37 11 -237 37 -359 46 l-83 7 0 179 c0 168 -1 180
-20 191 -18 12 -20 24 -20 124 0 119 2 124 54 124 36 0 46 20 46 86 0 35 4 65
10 69 5 3 82 15 172 26 247 31 488 81 563 118 138 68 180 171 194 482 4 99 10
181 12 183 2 2 25 7 52 10 l47 7 0 -895 c0 -883 0 -896 20 -916 25 -25 9 -23
173 -25 91 -2 134 1 125 7 -9 7 -7 8 7 2 30 -11 66 -8 77 8 8 10 9 9 4 -4 -5
-16 1 -18 42 -18 34 0 43 3 32 10 -12 8 -11 10 8 10 12 0 22 -4 22 -10 0 -5 5
-10 11 -10 5 0 7 5 4 10 -3 6 3 10 15 10 12 0 18 -5 15 -10 -3 -6 -1 -10 4
-10 6 0 11 5 11 10 0 18 20 11 22 -7 0 -10 4 2 8 27 l7 45 1 -41 c3 -62 20
-101 50 -112 15 -6 140 -27 277 -46 138 -20 354 -51 480 -70 405 -62 469 -69
532 -56 31 7 66 13 77 15 12 1 30 5 41 8 11 3 38 8 60 11 22 4 51 8 65 11 14
3 34 7 45 9 11 2 55 11 99 20 43 9 90 18 105 20 43 7 253 47 294 58 27 6 41
16 48 36 7 18 9 402 7 1149 l-3 1122 90 7 c80 6 92 10 117 35 23 22 28 36 28
74 0 39 -5 52 -30 77 l-31 30 -224 -3 -225 -4 -21 34 c-18 29 -19 38 -8 58 10
19 10 31 1 57 -15 42 -15 46 2 46 40 0 27 44 -17 56 l-31 10 -2 102 c-1 95 0
102 18 102 15 0 18 5 13 20 -4 11 0 29 9 42 21 29 20 47 -3 72 -31 34 -35 63
-11 76 14 7 20 19 18 33 -2 17 -11 23 -38 25 -34 4 -60 17 -60 31 0 4 16 5 35
3 35 -4 35 -4 35 35 0 54 -33 143 -61 164 l-24 18 40 3 c35 3 40 6 43 31 2 16
-6 43 -17 63 -26 44 -26 58 0 76 19 12 20 17 10 35 -9 18 -8 24 4 31 13 7 14
14 5 36 -5 15 -12 47 -15 71 -5 37 -3 43 15 48 26 7 26 33 0 47 -11 6 -20 19
-20 29 0 10 9 21 20 24 28 7 25 45 -6 78 l-25 27 30 21 c17 13 31 26 31 31 0
26 -34 37 -132 44 -117 8 -343 33 -397 44 -20 4 -70 4 -111 -1 -41 -4 -235 -9
-430 -11 -315 -4 -355 -6 -358 -20 -2 -11 -14 -16 -38 -16 -61 0 -58 -62 4
-68 41 -4 57 -24 42 -52 -14 -26 -8 -36 38 -59 27 -13 62 -19 127 -20 49 -1
91 -4 93 -5 1 -2 -4 -11 -13 -19 -8 -9 -15 -22 -15 -30 0 -11 -14 -16 -45 -19
-45 -3 -45 -3 -45 30 0 30 -2 32 -27 26 -16 -3 -45 -5 -66 -4 -59 2 -77 -7
-77 -39 0 -29 26 -61 50 -61 9 0 11 -9 7 -30 -4 -17 -2 -30 3 -30 16 0 11 -30
-5 -36 -18 -7 -20 -30 -2 -37 7 -3 5 -6 -5 -6 -23 -1 -23 -9 3 -30 l20 -16
-30 -39 c-34 -42 -30 -59 14 -70 26 -7 32 -20 15 -31 -18 -11 -11 -23 10 -18
14 4 20 0 20 -11 0 -9 -7 -16 -15 -16 -12 0 -14 -4 -7 -16 19 -33 3 -51 -50
-57 -64 -8 -99 -39 -129 -116 -29 -76 -63 -105 -151 -132 -40 -11 -89 -29
-108 -39 -49 -25 -103 -85 -135 -148 -14 -30 -28 -52 -30 -50 -2 2 2 32 10 68
25 121 38 290 32 414 -10 225 -68 374 -193 504 -41 42 -74 82 -74 87 0 17 143
438 195 575 94 247 113 296 155 400 62 154 49 200 -78 272 -29 17 -51 36 -49
42 3 6 44 104 91 218 47 115 86 217 86 228 0 28 -32 57 -78 71 -39 11 -39 12
-34 55 l5 44 -47 20 c-41 19 -46 25 -46 53 0 44 -19 78 -55 98 -34 20 -140 34
-605 79 -173 17 -328 33 -345 35 -16 3 -129 14 -250 26 -121 11 -274 26 -340
34 -149 19 -269 20 -283 2z m288 -68 c370 -53 768 -108 940 -129 91 -12 175
-25 188 -30 19 -9 22 -17 22 -72 0 -107 -11 -170 -28 -163 -69 26 -1514 235
-1630 235 -29 0 -32 3 -32 30 0 27 3 30 31 30 17 0 87 -9 157 -20 70 -10 188
-26 262 -35 74 -8 214 -26 310 -40 403 -57 532 -76 650 -95 139 -22 200 -25
200 -10 0 6 -6 10 -12 10 -7 0 -101 14 -208 31 -211 33 -439 66 -730 104 -102
13 -256 34 -342 46 l-158 22 0 29 c0 15 5 28 12 28 38 0 995 -135 1243 -176
163 -26 205 -29 205 -14 0 13 3 13 -415 75 -598 89 -634 94 -760 110 -169 22
-165 21 -165 50 0 21 4 25 23 20 12 -3 119 -19 237 -36z m153 4 c-7 -2 -21 -2
-30 0 -10 3 -4 5 12 5 17 0 24 -2 18 -5z m532 -53 c631 -58 816 -80 841 -101
19 -16 17 -78 -6 -184 -18 -78 -169 -548 -251 -780 -16 -44 -60 -172 -99 -285
-39 -113 -68 -189 -64 -170 4 19 7 45 8 57 1 11 4 19 7 17 4 -2 14 24 24 59
30 108 77 251 96 292 22 48 79 231 79 254 0 9 4 21 9 27 5 5 19 43 31 84 12
41 28 100 37 130 9 30 19 75 23 100 4 25 8 38 10 30 5 -33 29 69 29 127 1 71
-11 85 -84 97 -74 13 -78 15 -71 48 8 43 -8 66 -57 78 -23 6 -60 19 -82 29
-28 13 -146 32 -385 61 -313 39 -390 50 -334 50 10 0 118 -9 239 -20z m-1198
-140 c511 -63 1108 -147 1458 -206 171 -29 217 -46 263 -98 52 -60 49 -85 -48
-401 -91 -296 -158 -553 -239 -915 -28 -124 -63 -276 -77 -338 -39 -172 -93
-463 -110 -597 -18 -144 -32 -171 -90 -169 -22 1 -129 16 -238 33 -110 18
-234 36 -275 42 -102 13 -335 50 -696 109 -404 67 -645 105 -793 127 -106 15
-124 15 -132 3 -5 -9 -5 -19 2 -27 7 -9 7 -13 0 -13 -6 0 -20 12 -31 26 -27
34 -27 78 -1 242 76 474 192 958 381 1592 45 151 178 532 193 555 24 36 84 64
138 65 26 0 159 -14 295 -30z m1775 -18 c4 -4 -2 -63 -14 -130 l-22 -122 -23
22 c-26 24 -26 35 -7 201 6 47 7 48 33 42 14 -3 29 -10 33 -13z m378 -101 c0
-18 -193 -568 -213 -607 -9 -17 -24 -37 -33 -45 -11 -8 -15 -9 -10 -2 9 16 36
119 36 140 0 23 -8 13 -13 -17 -18 -96 -75 -263 -77 -225 -1 26 178 585 215
670 7 17 19 49 25 72 12 40 14 41 41 31 16 -5 29 -13 29 -17z m-329 -11 c11
-6 19 -21 19 -36 0 -34 -42 -194 -51 -194 -16 0 -20 79 -8 157 7 46 14 83 16
83 2 0 13 -5 24 -10z m112 -25 c9 -21 -12 -95 -133 -465 -60 -184 -120 -373
-133 -420 -48 -164 -148 -486 -177 -570 -27 -76 -29 -80 -24 -38 3 26 11 60
19 75 16 32 65 244 65 279 0 13 5 24 10 24 6 0 10 23 10 50 0 28 5 50 10 50 6
0 10 12 10 28 0 19 3 23 9 13 6 -10 13 6 23 50 11 46 12 66 4 71 -8 5 -8 13 1
26 6 11 17 47 24 81 11 60 24 77 31 44 2 -10 4 2 4 27 0 25 3 54 8 65 5 11 10
27 11 35 3 20 33 115 52 165 8 22 19 49 23 60 40 104 103 349 92 360 -3 3 8 5
25 5 18 0 33 -6 36 -15z m244 -77 c-3 -13 -8 -39 -11 -58 -4 -28 -2 -25 10 13
16 50 34 59 68 34 17 -12 13 -25 -57 -193 -40 -98 -80 -197 -87 -219 -16 -51
-24 -59 -40 -40 -7 8 -23 15 -36 15 -13 0 -24 2 -24 5 0 25 77 235 125 340 7
17 19 51 25 78 12 46 37 70 27 25z m-222 -38 c-4 -23 -9 -39 -12 -36 -3 2 -2
23 2 46 4 23 9 39 12 36 3 -2 2 -23 -2 -46z m-108 -337 c-3 -10 -5 -2 -5 17 0
19 2 27 5 18 2 -10 2 -26 0 -35z m-9 -54 c-3 -8 -7 -3 -11 10 -4 17 -3 21 5
13 5 -5 8 -16 6 -23z m-42 -116 c-10 -26 -18 -8 -9 23 5 21 8 24 11 11 2 -10
1 -25 -2 -34z m348 -5 c38 -24 78 -55 89 -69 24 -34 24 -33 -118 -399 -59
-151 -156 -421 -215 -600 -95 -285 -136 -415 -222 -715 -62 -217 -92 -302
-111 -322 l-22 -22 -60 20 c-33 11 -64 25 -70 31 -7 8 -5 9 10 4 11 -4 41 -10
67 -13 43 -5 47 -4 61 23 8 16 34 97 57 179 23 83 55 193 70 245 16 52 34 115
40 140 6 25 22 79 35 120 14 41 33 107 44 145 51 184 293 851 382 1053 l24 54
-33 26 c-39 33 -42 49 -4 25 l27 -17 -25 28 c-39 43 -124 88 -154 80 -13 -3
-27 -12 -30 -20 -4 -11 -2 -12 14 -4 39 21 43 9 7 -24 -39 -36 -62 -80 -134
-266 -25 -63 -49 -120 -54 -126 -8 -10 -123 -336 -174 -494 -13 -41 -46 -140
-73 -220 -28 -80 -82 -251 -122 -380 -84 -275 -108 -349 -109 -334 -1 7 8 40
18 75 11 35 30 107 42 159 12 52 25 100 29 105 4 6 22 62 39 125 29 106 40
138 61 181 14 28 23 97 11 79 -9 -13 -11 -13 -11 1 0 8 7 24 15 35 8 10 15 29
15 42 0 31 29 152 41 175 5 10 7 23 3 29 -4 7 -3 8 4 4 8 -5 12 1 12 16 0 19
2 20 11 8 7 -11 8 -3 4 30 -4 29 -3 40 3 32 8 -11 10 -11 15 2 3 8 2 16 -2 18
-4 2 9 57 28 123 20 66 37 112 39 102 2 -10 -4 -42 -13 -72 -10 -29 -15 -59
-13 -66 6 -17 39 114 43 168 1 24 11 55 21 70 10 16 31 65 46 110 47 139 122
287 165 323 49 40 81 36 177 -22z m-69 -28 c17 -7 15 -9 -12 -9 -18 -1 -33 4
-33 9 0 12 17 12 45 0z m55 -26 c0 -8 -19 -13 -24 -6 -3 5 1 9 9 9 8 0 15 -2
15 -3z m-360 -30 c0 -8 -5 -12 -10 -9 -6 4 -8 11 -5 16 9 14 15 11 15 -7z
m-12 -49 c-3 -3 -9 2 -12 12 -6 14 -5 15 5 6 7 -7 10 -15 7 -18z m-4074 -744
c6 -9 11 -372 8 -519 -1 -43 -6 -71 -11 -67 -6 3 -14 -11 -18 -32 l-8 -38 -6
45 -6 45 -1 -41 c-2 -30 -6 -41 -18 -41 -13 0 -14 7 -9 36 9 47 -2 36 -14 -15
l-9 -39 0 45 c0 202 -16 519 -28 548 l-13 32 -73 0 c-40 0 -145 -5 -233 -10
-143 -8 -442 -24 -925 -49 -91 -4 -167 -6 -169 -4 -3 2 0 7 5 12 9 10 185 22
959 66 242 14 454 27 470 29 63 6 94 6 99 -3z m546 -121 c31 -16 39 -42 51
-152 6 -59 20 -124 32 -152 20 -47 20 -49 2 -62 -13 -9 -14 -14 -5 -14 18 0
50 30 50 47 0 21 29 75 58 106 29 31 66 35 94 10 26 -23 22 -59 -12 -106 -46
-66 -54 -118 -29 -203 17 -58 19 -77 10 -110 -10 -36 -17 -42 -83 -74 l-73
-35 -140 1 c-148 1 -266 24 -382 74 -45 19 -51 26 -57 58 -3 20 -6 52 -6 71 0
27 3 32 18 28 9 -3 55 -17 102 -31 47 -15 94 -25 105 -23 16 3 14 5 -10 11
-16 4 -70 25 -120 46 l-90 37 -3 57 c-2 31 -1 56 2 56 3 0 27 -15 53 -34 88
-62 182 -100 223 -89 31 8 24 18 -13 19 -35 0 -157 58 -224 107 -39 28 -43 34
-43 75 l0 44 48 -42 c90 -80 193 -130 265 -130 50 0 127 36 127 58 0 10 -16
62 -35 117 -19 55 -35 113 -35 128 0 81 63 138 120 107z m3257 -32 c-3 -7 -5
-2 -5 12 0 14 2 19 5 13 2 -7 2 -19 0 -25z m1951 15 c-10 -2 -28 -2 -40 0 -13
2 -5 4 17 4 22 1 32 -1 23 -4z m129 1 c-3 -3 -12 -4 -19 -1 -8 3 -5 6 6 6 11
1 17 -2 13 -5z m-649 -11 c-38 -2 -98 -2 -135 0 -38 2 -7 3 67 3 74 0 105 -1
68 -3z m365 0 c-23 -2 -64 -2 -90 0 -26 2 -7 3 42 3 50 0 71 -1 48 -3z m375 0
c-10 -2 -28 -2 -40 0 -13 2 -5 4 17 4 22 1 32 -1 23 -4z m-168 -8 c0 -2 -16
-12 -35 -21 -24 -11 -79 -19 -172 -24 l-138 -7 140 -1 c118 0 145 3 177 19 44
22 49 23 46 7 -2 -7 -12 -16 -23 -20 -11 -3 72 -7 185 -8 126 -1 190 -5 166
-10 -22 -4 -103 -7 -180 -6 -78 1 -188 -4 -246 -11 -58 -7 -168 -13 -245 -14
-77 -1 -153 -5 -170 -8 -44 -11 336 -2 429 9 157 19 596 10 596 -13 0 -6 -41
-8 -117 -3 -65 3 -188 8 -273 11 -144 4 -148 3 -55 -5 225 -21 353 -30 408
-30 41 0 56 -3 51 -11 -5 -8 -33 -10 -93 -5 -270 20 -407 26 -493 20 -54 -4
-95 -11 -92 -15 3 -5 -1 -9 -8 -10 -7 0 -6 -3 4 -7 11 -5 14 -12 9 -21 -7 -10
-13 -11 -31 -1 -15 8 -20 8 -16 1 4 -6 0 -11 -8 -11 -9 0 -16 -7 -16 -15 0 -8
-1 -15 -2 -15 -2 0 -76 -3 -165 -7 l-163 -6 0 27 c0 22 -4 26 -27 26 -20 0
-24 3 -14 9 17 11 -100 25 -154 19 -31 -4 -35 -1 -35 19 0 25 7 26 170 25 92
-1 31 15 -70 18 -121 3 -139 16 -35 24 50 4 126 11 170 15 l80 8 -114 2 c-63
0 -112 3 -110 6 3 2 131 9 285 15 263 10 363 17 373 26 6 5 11 5 11 -1z m263
-2 c-7 -2 -21 -2 -30 0 -10 3 -4 5 12 5 17 0 24 -2 18 -5z m-1063 -31 c0 -5
-13 -7 -30 -4 -16 2 -30 6 -30 8 0 2 14 4 30 4 17 0 30 -4 30 -8z m1367 -8
c-3 -3 -12 -4 -19 -1 -8 3 -5 6 6 6 11 1 17 -2 13 -5z m-97 -34 c0 -5 -14 -7
-32 -3 -46 8 -48 13 -5 13 21 0 37 -4 37 -10z m44 1 c4 -5 -3 -7 -14 -4 -23 6
-26 13 -6 13 8 0 17 -4 20 -9z m-2477 -78 c-3 -10 -5 -4 -5 12 0 17 2 24 5 18
2 -7 2 -21 0 -30z m1906 0 c-7 -2 -21 -2 -30 0 -10 3 -4 5 12 5 17 0 24 -2 18
-5z m304 -19 c-3 -3 -12 -4 -19 -1 -8 3 -5 6 6 6 11 1 17 -2 13 -5z m-2230
-36 c-3 -7 -5 -2 -5 12 0 14 2 19 5 13 2 -7 2 -19 0 -25z m441 -85 c59 -64
123 -184 148 -278 21 -81 29 -295 15 -430 -16 -164 -42 -285 -61 -295 -15 -8
-16 -4 -4 53 25 126 38 266 38 417 0 245 -36 365 -156 512 -32 39 -58 72 -58
74 0 17 33 -6 78 -53z m805 26 c9 0 17 -7 17 -15 0 -24 -84 -15 -88 10 -3 16
0 18 25 12 15 -4 36 -7 46 -7z m415 4 c-38 -2 -98 -2 -135 0 -38 2 -7 3 67 3
74 0 105 -1 68 -3z m705 -10 c-89 -2 -237 -2 -330 0 -92 1 -19 3 162 3 182 0
257 -2 168 -3z m-502 -10 c31 -7 28 -9 -31 -14 -48 -5 -39 -6 35 -4 l100 4 23
-39 c12 -22 22 -43 22 -48 0 -5 -57 -10 -127 -10 -69 -1 -129 -4 -131 -7 -6
-6 303 -9 544 -5 100 1 184 -2 186 -6 3 -5 8 -21 11 -35 l7 -26 -228 -7 c-125
-4 -251 -3 -279 2 -29 5 -53 5 -53 1 0 -5 6 -9 14 -9 17 0 76 -47 76 -61 0 -5
-13 -15 -29 -23 -24 -13 -94 -15 -420 -16 -258 0 -391 3 -391 10 0 13 -10 12
120 20 l115 7 -107 1 c-62 1 -108 6 -108 12 0 14 35 30 72 32 29 1 27 2 -11 7
-57 8 -65 28 -14 34 l38 4 -41 1 -41 2 11 41 c9 34 14 39 31 34 50 -17 150
-35 162 -31 7 3 13 17 13 31 0 14 6 25 13 26 8 0 8 2 1 5 -7 3 -10 13 -7 23 6
25 42 31 180 31 74 0 112 4 108 10 -7 12 86 14 136 3z m-564 -45 c-3 -7 -5 -2
-5 12 0 14 2 19 5 13 2 -7 2 -19 0 -25z m754 10 c0 -13 4 -32 9 -43 6 -14 7
-7 4 21 l-6 41 83 -3 c46 -1 126 -3 177 -3 89 -1 93 -2 104 -26 7 -16 8 -29 2
-34 -5 -5 -94 -10 -199 -12 l-189 -4 -24 43 -23 42 30 0 c25 0 31 -4 32 -22z
m427 10 c-6 -18 -25 -20 -31 -3 -5 10 0 15 14 15 12 0 19 -5 17 -12z m-1141
-4 c-3 -3 -12 -4 -19 -1 -8 3 -5 6 6 6 11 1 17 -2 13 -5z m-77 -28 c0 -21 -21
-31 -31 -15 -14 22 -11 29 11 29 11 0 20 -6 20 -14z m1247 -7 c-2 -27 -35 -46
-43 -24 -9 23 3 45 25 45 14 0 19 -6 18 -21z m3 -60 c0 -5 4 -8 9 -4 17 10 20
-9 5 -29 -16 -23 -19 -21 -28 17 -4 16 -2 27 4 27 5 0 10 -5 10 -11z m-7030
-58 c-14 -8 -342 -18 -365 -11 -23 7 109 17 240 18 83 1 134 -2 125 -7z m15
-30 c-3 -6 -15 -16 -26 -21 -14 -8 -19 -7 -19 2 0 7 10 18 23 24 25 11 32 10
22 -5z m6742 1 c211 7 286 3 280 -16 -2 -6 -12 -10 -22 -8 -10 2 -14 -1 -10
-7 4 -7 -15 -12 -57 -12 -35 -1 -49 -4 -33 -6 17 -2 37 -7 45 -10 8 -3 25 -5
37 -4 11 1 24 -3 28 -8 4 -8 -21 -11 -77 -11 -46 0 -159 -3 -253 -6 -130 -5
-167 -3 -159 6 8 8 74 12 220 12 141 1 188 3 144 8 -36 4 -118 5 -183 2 -127
-5 -154 1 -182 44 -14 22 -14 23 4 16 11 -4 109 -4 218 0z m-6852 -22 c3 -5
-1 -10 -9 -10 -9 0 -16 5 -16 10 0 6 4 10 9 10 6 0 13 -4 16 -10z m702 -67
c-3 -10 -5 -2 -5 17 0 19 2 27 5 18 2 -10 2 -26 0 -35z m5777 -53 c32 -8 25
-9 -38 -5 -43 3 -193 5 -333 5 -139 0 -253 4 -253 8 0 11 572 3 624 -8z m666
-1 c0 -5 -4 -9 -8 -9 -5 0 -9 7 -9 15 0 8 4 12 9 9 4 -3 8 -9 8 -15z m-530
-21 c-52 -4 -120 -12 -150 -17 -58 -10 3 -9 384 9 164 7 206 5 206 -9 0 -4
-43 -5 -95 -3 -52 3 -134 1 -182 -4 l-88 -9 75 -6 c66 -5 59 -6 -65 -9 -203
-6 -323 -15 -334 -26 -2 -2 21 -4 51 -4 42 0 57 -4 62 -16 9 -24 9 -24 -41
-25 -43 -1 -45 -2 -17 -8 55 -14 76 -41 32 -41 -21 -1 -22 -2 -6 -14 10 -7 15
-16 11 -20 -7 -7 -474 1 -530 10 -40 6 -67 46 -68 102 l0 42 70 1 70 2 -56 7
c-59 7 -79 15 -79 30 0 11 124 15 530 15 213 0 284 -2 220 -7z m-5049 -22
c-12 -14 -111 -57 -129 -56 -4 1 21 14 54 29 34 16 65 34 69 40 4 7 9 10 12 7
3 -3 0 -12 -6 -20z m87 -93 l21 -88 -22 -17 c-36 -29 -123 -58 -195 -64 l-68
-7 -17 53 c-28 88 -26 96 40 115 71 21 178 69 187 84 18 29 34 6 54 -76z
m5455 38 c50 -45 40 -48 -142 -50 -162 -2 -169 -1 -174 19 -4 14 -13 20 -35
20 -17 0 -33 -4 -36 -9 -4 -5 -17 -8 -31 -6 -14 1 -25 -1 -25 -4 0 -11 -163 4
-167 15 -2 7 31 10 99 11 57 0 150 0 208 1 58 1 120 0 138 -1 17 -2 32 0 32 5
0 4 -37 9 -82 9 -114 2 -36 14 92 14 86 0 98 -2 123 -24z m-355 12 c-10 -2
-28 -2 -40 0 -13 2 -5 4 17 4 22 1 32 -1 23 -4z m-3756 -41 l87 -17 -68 -103
c-38 -57 -76 -121 -86 -142 -10 -22 -21 -37 -25 -35 -11 7 -21 83 -29 208 -7
124 -19 116 121 89z m-211 -32 c24 -13 26 -80 4 -172 -34 -146 -34 -342 -1
-478 13 -53 14 -128 1 -124 -7 3 -42 67 -78 142 -68 141 -129 311 -141 394
l-7 47 73 21 c105 31 118 37 118 59 0 25 -21 37 -80 45 -25 4 -58 10 -75 13
l-29 5 39 21 c64 33 142 45 176 27z m3987 3 c-10 -2 -28 -2 -40 0 -13 2 -5 4
17 4 22 1 32 -1 23 -4z m-937 -32 c16 -16 29 -40 29 -53 0 -33 -47 -104 -109
-166 -28 -28 -51 -55 -51 -61 0 -5 30 -23 66 -40 111 -52 175 -40 354 65 102
59 128 71 185 84 80 18 132 -25 106 -88 -13 -31 -3 -30 -138 -16 -47 5 -61 1
-170 -50 -65 -30 -183 -78 -263 -106 -80 -28 -149 -55 -154 -60 -12 -12 21 -4
147 37 60 19 111 32 115 29 3 -4 -10 -20 -29 -37 -19 -16 -25 -26 -14 -20 11
5 36 23 55 41 45 41 180 113 252 136 53 16 58 16 82 0 17 -10 26 -26 26 -42 0
-21 -18 -36 -107 -95 -173 -112 -271 -156 -388 -175 -119 -19 -275 -20 -365
-4 -36 7 -79 13 -97 14 -40 3 -62 21 -84 71 -24 53 -23 80 5 140 35 75 102
130 198 160 134 42 165 67 198 156 24 62 67 109 102 109 11 0 33 -13 49 -29z
m-2364 -15 c85 -13 155 -25 158 -27 2 -3 -32 -36 -77 -74 -44 -39 -116 -100
-159 -137 -63 -55 -79 -65 -83 -50 -3 9 -10 71 -16 137 -6 66 -15 135 -20 153
-9 33 -8 34 18 27 14 -3 95 -17 179 -29z m-295 -21 c51 -26 58 -33 63 -67 6
-34 4 -42 -22 -64 -63 -57 -80 -63 -131 -48 -66 20 -86 42 -72 79 6 15 25 46
43 69 47 61 52 65 57 63 3 -1 31 -16 62 -32z m1259 -2 c-12 -20 -14 -14 -5 12
4 9 9 14 11 11 3 -2 0 -13 -6 -23z m2014 -18 c6 -2 -115 -4 -267 -4 -159 -1
-278 3 -278 8 0 8 520 4 545 -4z m-4691 -130 c21 -66 55 -158 77 -204 21 -46
39 -89 39 -95 0 -6 -9 -22 -20 -36 -23 -30 -26 -50 -6 -50 8 0 20 16 26 35 21
64 52 55 41 -13 -5 -31 -11 -37 -38 -43 -39 -8 -78 14 -68 39 5 14 3 14 -13
-1 -18 -16 -20 -15 -42 27 -12 24 -20 49 -16 54 3 5 -9 25 -27 43 -40 42 -67
92 -74 139 -3 19 -13 50 -24 68 -12 22 -14 32 -6 33 7 0 3 4 -8 9 -17 7 -17 9
-2 9 9 1 17 6 17 12 0 6 -7 8 -17 5 -9 -4 -38 -9 -63 -12 -25 -3 -57 -7 -73
-9 -15 -2 -39 0 -55 5 -24 7 -22 8 18 9 88 2 235 54 270 96 7 9 16 12 20 8 4
-4 24 -62 44 -128z m779 90 c12 -1 30 -6 40 -10 16 -6 12 -11 -23 -33 -41 -24
-42 -25 -36 -66 11 -71 103 -328 157 -436 47 -98 118 -221 160 -281 18 -26 16
-74 -4 -62 -6 3 -7 1 -3 -5 4 -7 -2 -29 -13 -50 -22 -42 -41 -116 -41 -162 0
-17 -4 -29 -9 -26 -4 3 -5 -13 -1 -37 5 -23 5 -44 1 -47 -4 -3 -13 -14 -19
-25 -6 -11 -12 -14 -12 -7 0 7 -15 12 -40 12 -29 0 -40 4 -40 15 0 12 -16 15
-80 15 -47 0 -80 4 -80 10 0 6 -18 10 -40 10 -22 0 -40 -4 -40 -8 0 -4 -18 -9
-40 -10 -40 -3 -40 -3 -41 35 l-2 38 -7 -40 c-4 -22 -8 -30 -9 -18 -2 36 -19
36 -24 1 -3 -28 -4 -27 -6 12 l-3 45 -14 -50 c-8 -27 -13 -85 -13 -128 1 -43
0 -80 -3 -82 -2 -3 -13 2 -24 9 -17 13 -19 27 -17 163 3 153 24 369 49 508 18
96 87 376 114 460 10 33 33 106 50 163 l31 103 30 -6 c17 -4 40 -8 52 -10z
m3852 -5 c-39 -7 -39 -7 18 -10 31 -1 62 -4 67 -5 6 -1 14 -3 19 -4 12 -1 51
-64 56 -89 3 -20 -21 -38 -59 -44 -36 -6 -11 -23 31 -22 52 2 48 -12 -7 -21
-35 -6 -44 -14 -42 -36 1 -3 -15 -11 -34 -17 -31 -9 -47 -1 -25 13 18 10 41
68 41 99 0 17 -7 42 -16 54 -8 12 -11 22 -5 22 20 0 66 -22 78 -36 6 -9 16
-14 22 -13 17 6 -60 54 -88 55 -14 0 -36 6 -48 12 -12 7 -36 12 -53 12 -42 0
-174 -52 -239 -95 -84 -56 -161 -88 -213 -89 -64 -1 -80 16 -46 50 22 22 39
27 114 35 130 14 133 18 9 15 -60 -2 -116 -5 -124 -7 -7 -2 -16 2 -18 9 -3 6
0 12 6 12 6 0 11 8 11 18 0 9 4 13 8 7 12 -16 32 -16 26 0 -5 11 2 15 27 16
19 0 106 7 194 14 l160 13 -192 -5 c-106 -3 -193 -2 -193 1 0 3 6 15 12 26 12
19 23 20 278 19 146 -1 247 -5 225 -9z m-3476 -183 c14 16 36 43 48 59 19 24
24 27 32 14 14 -19 14 -19 -82 -196 l-82 -152 -8 42 c-10 51 -3 363 9 391 6
15 14 -4 33 -84 l24 -104 26 30z m3881 156 c3 -3 -50 -3 -117 -1 l-122 3 15
-23 c8 -13 14 -28 12 -34 -2 -6 -16 9 -32 32 l-28 42 134 -7 c73 -4 135 -9
138 -12z m315 -6 c7 -7 4 -8 -8 -3 -10 3 -82 7 -160 7 -80 1 -129 4 -112 8 42
10 268 1 280 -12z m-3382 -60 c-3 -6 -1 -7 5 -3 7 4 22 -2 34 -13 l22 -21 -33
0 c-34 0 -111 -34 -111 -50 0 -5 8 -15 19 -22 10 -7 39 -32 65 -56 l46 -42
-48 -48 c-26 -26 -58 -54 -70 -62 -25 -16 -48 -34 -126 -96 -111 -88 -218
-150 -239 -137 -7 4 -6 -1 3 -13 8 -10 10 -16 5 -11 -4 4 -16 0 -25 -8 -9 -8
-30 -16 -46 -17 -25 -1 -77 -28 -94 -48 -3 -3 -29 -21 -57 -39 -81 -51 -87
-32 -13 39 336 326 396 395 493 571 35 62 76 97 98 84 5 -4 16 -2 25 3 21 12
56 3 47 -11z m3117 3 c-8 -5 -23 -10 -32 -10 -9 0 -19 -8 -21 -17 -4 -14 -5
-13 -6 4 -1 23 11 31 49 32 20 1 22 -1 10 -9z m-3316 -52 c-32 -62 -133 -203
-197 -274 -35 -39 -71 -82 -80 -95 -9 -12 -19 -20 -22 -17 -3 3 -17 50 -31
104 -28 111 -36 245 -15 252 7 2 28 17 46 33 l33 30 6 -28 c3 -15 8 -52 11
-80 4 -29 10 -55 15 -58 7 -4 91 53 195 134 28 21 51 37 53 36 2 -2 -4 -18
-14 -37z m2276 -7 c0 -20 -25 -35 -41 -25 -13 8 9 44 26 44 8 0 15 -9 15 -19z
m1038 2 c-10 -2 -26 -2 -35 0 -10 3 -2 5 17 5 19 0 27 -2 18 -5z m-3718 -77
c0 -52 19 -166 44 -269 16 -63 12 -91 -11 -83 -8 3 -12 2 -9 -3 3 -5 -42 -53
-100 -107 -58 -55 -108 -101 -110 -104 -3 -2 -2 4 2 14 5 14 4 17 -4 12 -14
-8 -22 9 -65 148 l-30 100 39 75 c45 90 142 261 155 277 7 9 21 9 49 2 l40
-10 0 -52z m-795 -2 c-14 -37 -25 -68 -25 -70 0 -2 -5 -4 -10 -4 -7 0 -7 6 0
20 15 29 8 25 -31 -17 -18 -21 -24 -29 -11 -19 33 28 49 7 20 -26 -13 -14 -24
-32 -26 -39 -8 -35 -115 -94 -207 -113 -76 -16 -99 -7 -93 38 3 25 11 31 67
52 83 31 211 117 281 188 30 31 56 56 57 56 2 0 -8 -30 -22 -66z m4688 49
c-13 -2 -35 -2 -50 0 -16 2 -5 4 22 4 28 0 40 -2 28 -4z m155 -5 c15 -15 16
-28 2 -28 -5 0 -10 7 -10 15 0 10 -16 15 -57 18 l-58 3 56 2 c32 1 60 -3 67
-10z m-441 -12 c53 -20 141 -30 258 -29 91 1 95 0 40 -7 -33 -4 -154 -8 -270
-7 -118 0 -181 3 -145 6 44 5 57 8 40 12 -17 4 -7 7 30 9 30 1 44 5 30 7 -27
5 -52 23 -32 23 6 0 29 -6 49 -14z m111 7 c-16 -2 -40 -2 -55 0 -16 2 -3 4 27
4 30 0 43 -2 28 -4z m268 -14 c6 -11 -77 -11 -131 0 -33 7 -26 8 43 8 45 0 85
-4 88 -8z m-3101 -25 c27 -9 64 -28 82 -41 33 -25 44 -53 21 -53 -6 0 -9 -3
-6 -6 4 -3 -1 -22 -9 -42 -15 -35 -42 -121 -99 -307 -45 -146 -83 -299 -113
-456 -16 -85 -32 -167 -36 -184 -3 -16 -7 -41 -10 -53 -5 -35 -12 -37 -19 -5
-4 15 -2 44 4 63 5 19 9 51 9 70 -1 19 -3 27 -6 18 -6 -23 -23 -23 -23 -1 0
15 -1 15 -13 -1 -12 -17 -14 -17 -20 -2 -8 21 -37 21 -37 0 0 -18 -48 -64 -66
-64 -6 0 -19 -9 -29 -20 -10 -11 -24 -20 -31 -20 -8 0 -19 -9 -26 -20 -7 -11
-21 -20 -30 -20 -10 0 -18 -4 -18 -10 0 -5 -18 -10 -40 -10 -22 0 -40 -5 -40
-11 0 -6 -25 -9 -65 -8 -56 2 -65 5 -65 21 0 16 -7 18 -54 16 -42 -2 -52 -6
-44 -15 6 -7 14 -11 18 -8 5 3 12 0 16 -6 4 -8 3 -9 -4 -5 -8 5 -12 0 -12 -13
0 -12 -7 -21 -15 -21 -8 0 -15 4 -15 8 0 4 -15 13 -32 21 -19 7 -27 15 -20 18
16 6 5 23 -15 23 -9 0 -13 -6 -10 -14 5 -11 0 -11 -24 1 -18 9 -40 12 -56 8
-23 -5 -25 -4 -13 10 11 13 10 18 -6 29 -10 8 -22 12 -26 10 -5 -3 -8 1 -8 8
-1 7 -9 3 -20 -11 -11 -13 -20 -19 -20 -15 0 5 -7 18 -16 29 -13 17 -16 18
-25 5 -8 -12 -9 -11 -4 6 3 13 -1 26 -10 34 -8 7 -15 19 -15 27 0 9 -6 13 -15
9 -8 -3 -15 -2 -16 2 0 4 -3 18 -5 32 -9 48 -11 85 -5 108 5 20 8 16 17 -22 8
-37 8 -43 -3 -34 -8 6 -13 7 -13 0 0 -22 46 -39 100 -36 79 4 88 7 83 21 -3 7
-1 13 5 13 17 0 25 76 11 114 -7 19 -16 33 -20 30 -4 -2 -14 2 -22 10 -24 24
-137 1 -137 -28 0 -8 -4 -17 -9 -20 -19 -12 14 66 38 91 27 26 96 61 166 83
85 27 317 150 440 233 128 87 335 281 335 315 0 8 -20 34 -45 58 -25 23 -45
44 -45 47 0 2 46 5 103 6 74 1 118 -3 152 -15z m3123 -21 c-16 -2 -40 -2 -55
0 -16 2 -3 4 27 4 30 0 43 -2 28 -4z m-651 -19 c-3 -3 -12 -4 -19 -1 -8 3 -5
6 6 6 11 1 17 -2 13 -5z m50 0 c-3 -3 -12 -4 -19 -1 -8 3 -5 6 6 6 11 1 17 -2
13 -5z m226 -1 c-34 -2 -93 -2 -130 0 -37 2 -9 3 62 3 72 0 102 -1 68 -3z
m-2168 -173 c36 -71 81 -154 100 -185 l36 -55 -35 -38 c-54 -56 -43 -71 14
-18 46 43 70 56 70 38 0 -4 -8 -12 -17 -18 -21 -13 -68 -94 -55 -94 5 0 23 18
41 40 17 22 66 65 107 96 42 30 112 90 156 132 46 44 79 68 75 57 -30 -97 -30
-99 -13 -159 12 -39 29 -71 51 -93 39 -39 36 -42 -10 -8 -18 14 -38 39 -45 55
-7 17 -16 30 -21 30 -5 0 -6 8 -3 18 3 10 0 9 -8 -5 -7 -12 -17 -22 -21 -22
-9 0 -37 -27 -37 -36 0 -14 -82 -86 -126 -111 -27 -15 -57 -32 -66 -38 -13 -8
-24 -7 -39 3 -19 11 -21 11 -16 -3 17 -44 -113 13 -154 68 -9 12 -44 75 -79
141 -35 66 -66 122 -69 125 -4 3 -15 25 -25 50 -10 25 -28 64 -40 87 -11 23
-17 45 -13 49 11 11 87 6 119 -8 16 -7 31 -21 34 -31 3 -10 8 -16 11 -14 2 3
0 14 -6 25 -11 21 -5 52 10 52 5 0 38 -58 74 -130z m1946 102 c9 -9 26 -24 38
-32 30 -21 26 -40 -9 -40 -38 0 -38 -10 -1 -35 22 -14 27 -23 19 -32 -6 -7
-20 -13 -32 -13 -20 1 -20 1 -2 15 18 14 18 15 -9 25 -15 6 -33 9 -39 6 -6 -2
-3 -5 7 -5 18 -1 22 -18 8 -40 -7 -11 -25 -13 -78 -8 -50 4 -60 3 -38 -4 31
-10 435 -5 605 7 52 4 93 4 90 2 -9 -10 -362 -28 -525 -28 -88 0 -239 6 -335
13 l-174 12 99 60 c55 33 107 63 116 67 10 4 20 12 24 18 4 7 21 18 39 26 42
20 174 10 197 -14z m573 12 c34 -13 13 -24 -44 -24 -82 0 -76 -16 11 -25 38
-4 68 -9 66 -12 -3 -2 -39 -1 -80 3 -62 5 -74 9 -70 22 6 13 -10 14 -128 7
-198 -12 -269 -13 -269 -4 0 14 59 20 275 28 116 4 213 9 217 9 3 1 13 -1 22
-4z m-240 -53 c3 -4 -49 -11 -115 -15 -67 -4 -125 -8 -129 -9 -4 -1 -8 3 -9 8
-1 9 60 15 211 23 20 1 39 -2 42 -7z m-1634 -13 c0 -7 13 -39 30 -71 33 -66
22 -66 -21 1 -29 46 -38 82 -19 82 6 0 10 -6 10 -12z m1685 2 c-27 -12 -35
-12 -35 0 0 6 12 10 28 9 24 0 25 -1 7 -9z m62 -6 c-3 -3 -12 -4 -19 -1 -8 3
-5 6 6 6 11 1 17 -2 13 -5z m-1711 -136 c29 -27 53 -39 97 -48 31 -6 57 -14
57 -17 0 -12 -73 -104 -97 -123 -33 -26 -92 -26 -142 0 -40 20 -74 74 -87 137
-7 36 19 102 61 151 l27 33 23 -48 c12 -26 40 -64 61 -85z m1878 114 c-1 -6
-2 -20 -2 -31 -2 -16 -15 -19 -104 -25 -57 -4 -119 -9 -138 -11 -33 -5 -34 -4
-6 5 39 12 110 22 179 24 66 1 79 16 14 16 -30 0 -48 6 -59 20 -17 19 -16 19
50 17 46 -2 67 -6 66 -15z m-124 -11 c0 -6 -4 -12 -8 -15 -5 -3 -9 1 -9 9 0 8
4 15 9 15 4 0 8 -4 8 -9z m-350 -25 c0 -2 -13 -6 -30 -8 -16 -3 -30 -1 -30 4
0 4 14 8 30 8 17 0 30 -2 30 -4z m-2 -33 c-10 -2 -26 -2 -35 0 -10 3 -2 5 17
5 19 0 27 -2 18 -5z m145 0 c-7 -2 -19 -2 -25 0 -7 3 -2 5 12 5 14 0 19 -2 13
-5z m-700 -50 c-18 -2 -48 -2 -65 0 -18 2 -4 4 32 4 36 0 50 -2 33 -4z m237
-13 c43 -5 21 -6 -65 -3 -71 3 -132 7 -134 9 -7 7 130 2 199 -6z m837 4 c-3
-3 -12 -4 -19 -1 -8 3 -5 6 6 6 11 1 17 -2 13 -5z m-1304 -11 c-7 -2 -19 -2
-25 0 -7 3 -2 5 12 5 14 0 19 -2 13 -5z m-95 -18 c2 -2 -4 -18 -14 -35 -19
-31 -16 -40 20 -53 20 -7 -6 -46 -35 -52 -17 -4 -33 -13 -36 -22 -5 -12 -29
-13 -162 -7 -86 3 -159 9 -164 13 -4 4 6 28 23 54 16 26 33 59 36 75 4 15 8
29 9 32 3 6 318 1 323 -5z m561 -5 c95 -5 175 -11 177 -13 2 -1 1 -13 -3 -25
-5 -22 -8 -22 -127 -18 l-121 5 89 -10 c49 -6 96 -13 103 -18 8 -4 44 -4 81 0
151 17 382 33 462 32 65 -1 76 1 45 7 l-40 7 35 3 c67 6 97 -3 70 -20 -8 -6
-56 -10 -106 -10 -49 0 -162 -9 -250 -21 -87 -11 -211 -23 -274 -26 -115 -4
-164 -13 -76 -13 32 0 48 -5 52 -15 4 -9 20 -15 43 -15 28 0 33 -3 21 -11 -11
-8 -2 -9 35 -5 257 29 326 35 435 39 69 2 132 7 140 12 13 7 13 6 2 -7 -9 -11
-41 -17 -125 -22 -61 -4 -170 -15 -242 -24 -138 -18 -329 -21 -560 -10 -92 4
-118 4 -75 -2 50 -7 314 -28 385 -32 6 0 42 2 80 5 l70 6 -59 -9 c-33 -5 -63
-13 -68 -18 -4 -4 -68 -3 -140 4 -73 6 -230 19 -348 29 -279 22 -300 24 -300
37 0 11 95 8 245 -8 91 -10 62 3 -35 15 -162 21 -160 20 -158 47 3 28 15 33
98 36 l55 3 -65 16 -65 16 39 8 c21 4 89 3 150 -4 62 -6 141 -10 177 -10 60 2
58 2 -31 10 -52 5 -147 13 -210 17 -105 7 -112 9 -80 19 36 12 128 10 469 -7z
m144 13 c-13 -2 -33 -2 -45 0 -13 2 -3 4 22 4 25 0 35 -2 23 -4z m642 -12 c-6
-4 -91 -14 -190 -20 -99 -6 -209 -16 -245 -21 -131 -18 -172 -20 -167 -7 2 6
46 17 103 24 197 26 517 41 499 24z m20 -80 c-17 -15 -126 -31 -209 -31 -70 0
-199 -13 -352 -36 -23 -4 -50 -2 -60 4 -23 13 -12 15 231 37 99 9 209 20 245
24 92 12 156 13 145 2z m-202 -98 c-13 -2 -33 -2 -45 0 -13 2 -3 4 22 4 25 0
35 -2 23 -4z m-1263 -28 c881 -71 836 -70 1290 -32 179 15 404 30 500 33 168
6 176 6 193 -14 13 -14 17 -32 15 -63 l-3 -44 -145 -12 c-482 -38 -587 -45
-697 -47 -68 -1 -123 2 -123 7 0 4 -5 5 -10 2 -6 -4 -8 -10 -5 -15 3 -4 -4 -6
-15 -3 -20 5 -28 23 -11 23 13 0 20 25 14 50 -10 37 -46 21 -63 -28 l-15 -44
-100 7 c-55 3 -172 13 -260 20 -155 14 -311 24 -726 48 l-196 12 34 62 35 63
51 -5 c29 -3 135 -12 237 -20z m-5371 -1 c10 -9 -10 -9 -134 3 l-130 11 130
-5 c72 -3 132 -7 134 -9z m5031 13 c0 -2 -17 -19 -37 -38 -34 -31 -31 -21 6
24 12 15 31 23 31 14z m1378 -4 c-10 -2 -26 -2 -35 0 -10 3 -2 5 17 5 19 0 27
-2 18 -5z m-6275 -30 c-13 -2 -35 -2 -50 0 -16 2 -5 4 22 4 28 0 40 -2 28 -4z
m135 -10 c-16 -2 -40 -2 -55 0 -16 2 -3 4 27 4 30 0 43 -2 28 -4z m211 -9 c9
-8 -145 -2 -164 6 -12 5 16 6 70 3 50 -3 92 -7 94 -9z m3575 -10 c4 -14 4 -46
0 -71 -5 -33 -10 -43 -23 -41 -20 4 -27 71 -12 111 13 34 27 34 35 1z m-3524
5 c0 -5 -9 -9 -20 -9 -11 0 -20 4 -20 8 0 4 9 8 20 9 11 1 20 -2 20 -8z m162
-9 c39 0 68 -3 65 -7 -11 -10 -151 -3 -162 9 -7 8 -5 9 8 4 10 -3 51 -6 89 -6z
m168 -22 c0 -8 -80 -1 -89 8 -3 2 16 4 42 3 26 -1 47 -6 47 -11z m4076 -16
c-17 -16 -18 -16 -5 5 7 12 15 20 18 17 3 -2 -3 -12 -13 -22z m-3966 8 c11 -8
7 -9 -15 -4 -37 8 -45 14 -19 14 10 0 26 -5 34 -10z m237 -6 c-3 -3 -12 -4
-19 -1 -8 3 -5 6 6 6 11 1 17 -2 13 -5z m-1404 -21 c-7 -2 -19 -2 -25 0 -7 3
-2 5 12 5 14 0 19 -2 13 -5z m-643 -32 c0 -27 2 -29 58 -35 365 -39 848 -48
1409 -26 138 5 429 13 645 16 363 7 394 6 407 -10 17 -20 16 -97 0 -107 -7 -4
-100 -10 -208 -13 -108 -3 -293 -10 -411 -16 -352 -17 -643 -29 -846 -36
l-191 -6 -7 33 c-7 37 -32 79 -46 79 -13 0 -3 -92 12 -102 14 -10 -194 -2
-247 9 -30 6 -30 6 -5 13 l25 6 -32 17 c-18 10 -33 15 -33 12 0 -4 -5 -3 -11
1 -8 4 -7 9 2 15 13 8 -9 13 -63 13 -22 0 -12 16 10 17 24 2 -37 16 -73 18
-23 0 -26 -2 -15 -9 13 -8 12 -10 -2 -10 -10 0 -18 4 -18 9 0 4 -26 11 -57 15
-59 6 -77 8 -258 26 -55 5 -145 14 -200 20 -55 5 -196 17 -314 25 -203 15
-214 14 -227 -2 -11 -15 -13 -15 -14 -3 0 48 -15 46 598 58 l112 2 0 -29z
m767 22 c-20 -2 -52 -2 -70 0 -17 2 0 4 38 4 39 0 53 -2 32 -4z m545 -36 c76
-7 141 -17 145 -21 4 -5 -48 -6 -116 -2 -68 3 -150 6 -183 6 -45 0 -58 3 -58
15 0 18 26 19 212 2z m3731 -51 c18 -7 41 -23 52 -36 l20 -23 -42 22 c-33 16
-60 21 -125 21 -150 -1 -254 -41 -316 -122 -30 -41 -38 -46 -40 -29 -10 67 96
150 218 171 76 13 198 11 233 -4z m1292 -26 c116 -6 320 -17 455 -23 l245 -12
3 -32 3 -33 -43 5 c-43 5 -443 27 -857 45 -117 6 -217 13 -222 16 -11 6 -12
38 -2 48 4 4 52 5 108 2 55 -3 195 -11 310 -16z m-6288 4 c-3 -3 -12 -4 -19
-1 -8 3 -5 6 6 6 11 1 17 -2 13 -5z m3469 -19 c15 -14 24 -28 20 -32 -3 -4
-11 -2 -18 5 -8 8 -17 7 -33 -4 -28 -18 -75 -28 -75 -15 0 16 51 71 65 71 8 0
26 -11 41 -25z m3598 -50 c11 -17 16 -48 16 -100 0 -41 3 -75 8 -75 23 0 332
32 430 44 65 8 171 20 237 26 66 6 126 13 133 15 8 3 12 25 12 65 0 33 4 60
10 60 7 0 10 -368 10 -1085 0 -861 -3 -1085 -12 -1085 -10 0 -13 112 -13 525
0 289 -4 525 -9 525 -4 0 -5 33 -2 73 3 39 7 92 10 117 2 25 1 32 -1 15 -2
-16 -7 -39 -12 -50 -11 -26 -30 -93 -34 -125 -3 -17 -5 -12 -6 13 -1 30 -5 37
-21 37 -17 0 -20 7 -20 38 l0 39 -62 0 c-45 1 -57 -2 -40 -8 27 -10 29 -44 3
-59 -12 -6 -18 -18 -16 -30 2 -11 0 -20 -5 -20 -5 0 -10 7 -12 15 -2 11 -28
-9 -78 -60 -64 -65 -71 -75 -51 -75 23 0 24 -1 6 -20 -12 -13 -31 -20 -57 -20
-25 0 -46 -7 -60 -20 -12 -11 -16 -20 -10 -20 7 0 12 -16 12 -40 0 -39 -1 -40
-36 -40 l-35 0 3 -42 c2 -25 8 -44 16 -44 23 -3 24 -4 12 -19 -12 -15 -35 -11
-25 5 3 5 1 11 -3 14 -5 3 -24 -10 -42 -29 -28 -29 -41 -35 -79 -36 -37 -1
-41 -2 -21 -9 24 -7 24 -8 5 -15 -11 -5 -32 -21 -47 -37 -21 -20 -28 -24 -28
-12 0 14 -3 14 -15 4 -13 -11 -15 -2 -17 66 l-1 79 -7 -65 c-5 -46 -7 -18 -8
99 0 90 -4 166 -7 169 -3 3 -6 -66 -7 -154 -2 -87 -4 -197 -4 -244 -1 -47 -2
-223 -3 -392 l-1 -308 -24 0 c-13 0 -27 7 -30 16 -3 9 -6 533 -6 1165 0 995 2
1148 14 1143 8 -3 22 -16 30 -29z m-6751 18 c-7 -2 -21 -2 -30 0 -10 3 -4 5
12 5 17 0 24 -2 18 -5z m-450 -20 c-7 -2 -19 -2 -25 0 -7 3 -2 5 12 5 14 0 19
-2 13 -5z m6487 -28 c118 -8 294 -17 390 -21 96 -3 193 -10 215 -14 51 -11
-273 -2 -425 11 -252 21 -401 29 -532 29 -88 0 -138 4 -138 10 0 12 146 7 490
-15z m-6167 8 c-7 -2 -19 -2 -25 0 -7 3 -2 5 12 5 14 0 19 -2 13 -5z m3297
-28 c-7 -8 -17 -15 -22 -15 -5 0 -2 7 6 16 9 8 16 21 17 27 0 8 2 8 6 -1 3 -7
-1 -19 -7 -27z m-3202 18 c-16 -2 -40 -2 -55 0 -16 2 -3 4 27 4 30 0 43 -2 28
-4z m95 -10 c-13 -2 -33 -2 -45 0 -13 2 -3 4 22 4 25 0 35 -2 23 -4z m6207
-33 c195 -11 367 -20 383 -20 l28 0 -2 -460 c-1 -253 -3 -460 -5 -460 -6 0
-314 29 -584 56 -140 13 -316 29 -390 35 -74 5 -141 12 -147 14 -10 3 -13 99
-13 433 0 236 2 431 4 433 6 6 308 -7 726 -31z m-6103 24 c-3 -3 -12 -4 -19
-1 -8 3 -5 6 6 6 11 1 17 -2 13 -5z m4360 -136 c-19 -274 -36 -371 -69 -392
-28 -17 -30 -2 -14 81 8 43 22 139 31 213 20 171 22 180 42 180 14 0 15 -11
10 -82z m193 -40 c0 -135 -17 -387 -29 -433 -10 -35 -5 424 5 503 11 92 24 56
24 -70z m-5526 -22 c16 -235 3 -2206 -14 -2081 -9 72 -11 2211 -2 2195 5 -8
12 -60 16 -114z m4713 92 c-3 -8 -6 -5 -6 6 -1 11 2 17 5 13 3 -3 4 -12 1 -19z
m-2097 -1148 l0 -1160 -35 0 c-19 0 -35 -5 -35 -11 0 -7 -14 -10 -37 -7 -21 3
-51 1 -68 -4 -47 -13 -228 -20 -220 -8 3 5 1 10 -4 10 -6 0 -11 -7 -11 -15 0
-8 -6 -15 -12 -16 -7 -1 -26 -2 -43 -3 -16 -1 -34 -4 -40 -8 -5 -3 -31 -5 -58
-4 -26 0 -47 -2 -47 -6 0 -4 -26 -7 -57 -6 -32 1 -68 -4 -81 -11 -13 -7 -51
-12 -85 -11 -34 1 -64 1 -67 0 -15 -5 -62 -10 -116 -14 -34 -2 -66 -6 -71 -9
-11 -7 -198 -27 -249 -27 l-34 0 0 1200 0 1200 23 4 c12 3 101 7 197 10 239 7
1009 44 1120 54 l30 2 0 -1160z m1107 1098 c-2 -13 -4 -5 -4 17 -1 22 1 32 4
23 2 -10 2 -28 0 -40z m2191 -25 c43 -68 91 -153 105 -185 6 -16 15 -28 19
-28 4 0 8 -5 8 -10 0 -6 10 -27 23 -48 13 -20 47 -82 76 -137 30 -55 74 -134
100 -175 l46 -75 3 -525 2 -525 -242 -44 c-323 -59 -314 -58 -321 -29 -4 12
-7 415 -7 893 l0 871 46 12 c25 7 50 9 56 6 7 -4 8 -2 4 4 -4 7 3 14 19 18 14
3 25 10 25 15 0 17 8 9 38 -38z m-518 -196 c0 -107 -3 -196 -6 -200 -3 -3 -19
-1 -35 5 -22 8 -29 15 -24 27 12 30 23 105 30 196 8 122 15 165 26 165 5 0 9
-84 9 -193z m-5110 118 c102 -8 253 -20 335 -25 169 -11 567 -49 573 -55 2 -2
0 -412 -4 -912 -5 -499 -11 -834 -14 -743 -5 152 -6 157 -10 65 l-4 -100 -6
100 c-3 57 -7 80 -9 55 -3 -44 -3 -44 -12 -15 -5 17 -6 44 -3 60 4 23 0 35
-15 49 -12 11 -21 25 -21 32 0 7 -8 19 -18 26 -11 7 -21 20 -24 28 -3 9 -18
15 -40 15 -30 1 -36 -2 -33 -17 2 -10 0 -18 -6 -18 -5 0 -9 18 -9 40 0 39 -1
40 -35 40 -28 0 -35 4 -35 19 0 15 8 21 38 24 l37 4 -40 1 c-36 2 -48 10 -114
77 -48 48 -69 75 -58 75 9 0 17 4 17 8 0 20 -28 32 -72 32 -41 0 -48 -3 -48
-20 0 -17 -7 -20 -40 -20 -32 0 -40 4 -40 18 0 9 -9 23 -20 30 -36 22 -22 32
45 32 l65 0 -1 43 c-1 23 -4 32 -6 20 -4 -19 -11 -23 -44 -23 l-40 0 7 45 c8
60 -1 95 -26 95 -11 0 -20 -4 -20 -10 0 -5 -9 -10 -20 -10 -13 0 -20 -7 -20
-20 0 -17 -7 -20 -40 -20 -33 0 -40 3 -40 20 0 17 7 20 40 20 22 0 40 5 40 10
0 6 7 10 15 10 8 0 15 5 15 10 0 6 -7 13 -15 16 -8 4 -15 12 -15 19 0 15 -115
29 -165 19 -33 -6 -34 -5 -37 32 -3 35 -6 38 -37 42 -36 4 -81 46 -77 72 2 8
-17 32 -41 54 -31 27 -43 34 -43 22 0 -9 -4 -16 -10 -16 -13 0 -13 27 0 35 10
6 2 67 -11 75 -4 3 -9 23 -12 45 l-4 40 -1 -42 c-1 -24 -6 -43 -12 -43 -9 0
-13 115 -14 363 0 20 -3 37 -6 37 -3 0 -5 36 -5 79 l0 80 40 -5 c22 -2 123
-11 225 -19z m3210 -124 c0 -5 -10 -13 -22 -16 -233 -67 -318 -120 -342 -217
-13 -55 31 -238 100 -413 7 -20 7 -20 -14 -1 -25 22 -75 147 -103 255 -49 190
-4 286 163 352 106 42 218 62 218 40z m590 -91 c18 -11 18 -11 -90 -36 -117
-27 -188 -51 -280 -97 -152 -76 -194 -140 -170 -261 12 -64 69 -224 101 -288
21 -41 13 -50 -15 -19 -25 28 -94 192 -111 264 -32 136 -13 215 67 280 120 98
435 197 498 157z m1127 -126 c-3 -3 -12 -4 -19 -1 -8 3 -5 6 6 6 11 1 17 -2
13 -5z m-723 -179 c-4 -8 -17 -18 -30 -21 -32 -8 -170 -1 -181 9 -16 16 23 25
118 26 85 1 98 -1 93 -14z m-1015 -100 c12 -58 24 -113 26 -123 3 -9 -2 -1
-11 18 -21 46 -54 159 -54 187 0 54 18 15 39 -82z m-3409 -4 c0 -6 -4 -13 -10
-16 -5 -3 -10 1 -10 9 0 9 5 16 10 16 6 0 10 -4 10 -9z m6787 -56 c263 -25
510 -48 549 -52 l71 -6 7 -120 c4 -66 5 -122 2 -124 -3 -4 -253 21 -571 57
-49 5 -180 19 -290 30 -110 11 -217 23 -238 26 l-38 6 2 114 c1 88 4 114 15
114 7 0 228 -20 491 -45z m1400 -11 c-3 -3 -12 -4 -19 -1 -8 3 -5 6 6 6 11 1
17 -2 13 -5z m-5120 -129 c53 -32 55 -39 6 -18 -79 33 -230 12 -303 -42 -31
-23 -35 -24 -39 -8 -9 44 101 91 218 92 62 1 81 -3 118 -24z m216 -52 c-7 -2
-21 -2 -30 0 -10 3 -4 5 12 5 17 0 24 -2 18 -5z m619 -27 c9 -13 19 -36 23
-52 5 -27 4 -26 -11 6 -9 19 -23 43 -31 53 -9 9 -12 17 -7 17 5 0 17 -11 26
-24z m2658 -31 c432 -44 814 -85 837 -90 19 -5 21 -10 18 -48 -2 -23 -4 -228
-6 -455 l-2 -414 -31 7 c-17 4 -60 10 -96 15 -174 22 -376 52 -456 66 -49 9
-107 17 -129 19 -86 8 -142 15 -190 24 -27 6 -78 13 -112 16 -57 6 -63 5 -64
-12 -1 -16 -2 -16 -6 -1 -2 9 -10 15 -17 12 -16 -6 -26 218 -26 608 0 258 1
278 18 278 9 0 127 -11 262 -25z m-6050 -45 c0 -33 -3 -40 -20 -40 -17 0 -20
7 -20 40 0 33 3 40 20 40 17 0 20 -7 20 -40z m3800 -86 c0 -69 -4 -114 -10
-114 -6 0 -10 47 -10 121 0 77 4 118 10 114 6 -4 10 -55 10 -121z m-845 70
c25 -8 29 -12 11 -8 -35 6 -169 -22 -218 -47 -20 -10 -45 -30 -56 -44 -22 -28
-42 -33 -42 -11 0 26 49 73 93 90 92 35 154 41 212 20z m154 -10 c14 -12 -19
-1 -35 12 -18 14 -18 14 6 3 14 -6 27 -13 29 -15z m755 4 c3 -13 7 -58 10
-100 4 -72 3 -78 -15 -78 -19 0 -20 4 -21 65 -1 85 3 135 12 135 5 0 12 -10
14 -22z m56 -74 c0 -52 -3 -93 -7 -91 -8 5 -5 187 3 187 2 0 4 -43 4 -96z
m-712 59 c-16 -2 -40 -2 -55 0 -16 2 -3 4 27 4 30 0 43 -2 28 -4z m672 -215
c-14 -5 -45 -8 -70 -6 l-45 3 4 -177 c2 -108 -1 -178 -6 -178 -9 0 -27 356
-19 369 2 3 39 4 83 2 63 -2 73 -5 53 -13z m74 -175 c-4 -109 -8 -200 -10
-202 -1 -1 -7 0 -13 4 -7 4 -11 72 -11 195 0 187 2 196 33 199 5 1 5 -88 1
-196z m-254 -198 c0 -8 -4 -15 -9 -15 -145 0 -476 -55 -666 -110 -54 -16 -101
-27 -103 -25 -11 11 16 26 86 49 164 54 335 89 512 105 144 14 180 13 180 -4z
m445 5 c183 -13 254 -24 405 -67 123 -35 207 -69 196 -80 -3 -3 -27 1 -53 10
-163 53 -414 100 -595 113 -81 5 -108 10 -108 20 0 8 3 14 8 14 4 0 70 -5 147
-10z m-151 -60 c11 -11 17 -22 14 -26 -10 -9 -81 28 -86 45 -6 20 47 6 72 -19z
m-924 5 c-14 -8 -34 -14 -45 -14 -20 0 -20 0 -1 14 11 8 31 15 45 15 l26 -1
-25 -14z m2619 -96 c-21 -13 -33 -11 -20 5 9 11 9 16 0 21 -8 6 -7 10 2 16 10
6 17 2 23 -12 7 -15 6 -23 -5 -30z m-19 14 c2 -2 -14 -2 -37 -1 -23 2 -39 6
-37 10 5 7 64 0 74 -9z m-347 -40 c-7 -2 -21 -2 -30 0 -10 3 -4 5 12 5 17 0
24 -2 18 -5z m-2473 -23 c0 -5 8 -10 18 -13 12 -3 3 -10 -28 -24 -66 -29 -100
-36 -100 -20 0 13 28 58 42 68 12 8 68 -1 68 -11z m2053 2 c20 -22 42 -81 33
-89 -3 -3 -14 1 -23 9 -10 9 -28 19 -41 23 -12 3 -20 10 -17 15 3 5 -3 15 -12
22 -10 7 -19 19 -20 26 -4 19 61 15 80 -6z m954 -18 c-3 -3 -12 -4 -19 -1 -8
3 -5 6 6 6 11 1 17 -2 13 -5z m-5270 -56 c-2 -13 -4 -5 -4 17 -1 22 1 32 4 23
2 -10 2 -28 0 -40z m3289 5 c17 -17 16 -18 -15 -21 -38 -4 -44 -1 -35 22 8 21
28 20 50 -1z m-260 -98 l-1 -85 -252 3 c-139 1 -253 6 -253 10 0 4 -9 3 -19
-3 -11 -5 -21 -10 -23 -10 -2 0 1 24 6 54 8 42 15 56 31 60 42 10 406 51 481
55 l30 1 0 -85z m574 71 c36 -3 140 -13 231 -22 l167 -17 6 -50 c3 -28 4 -52
3 -53 -1 -1 -36 -4 -77 -5 -41 -2 -78 -8 -82 -14 -5 -6 -8 -6 -8 0 0 6 -63 8
-180 5 l-180 -5 0 81 c0 44 3 84 6 87 4 4 16 5 28 2 12 -2 50 -6 86 -9z m791
-85 c16 -16 29 -38 29 -48 0 -14 -4 -11 -19 11 -10 15 -32 37 -47 47 -22 15
-25 19 -11 19 10 0 32 -13 48 -29z m-2243 2 c45 -29 55 -53 23 -53 -10 0 -24
7 -31 15 -16 20 -39 19 -62 -2 -28 -25 -22 4 7 32 29 30 28 30 63 8z m278 0
c-3 -19 -36 -32 -36 -14 0 8 25 28 37 31 1 0 0 -8 -1 -17z m754 -90 c0 -16 -4
-34 -9 -42 -14 -21 -31 18 -20 47 12 31 29 28 29 -5z m170 1 c6 -14 7 -31 3
-37 -7 -12 -21 16 -22 46 -1 25 8 21 19 -9z m625 6 c3 -6 -1 -7 -9 -4 -18 7
-21 14 -7 14 6 0 13 -4 16 -10z m455 -90 c0 -5 -5 -10 -11 -10 -5 0 -7 5 -4
10 3 6 8 10 11 10 2 0 4 -4 4 -10z"/>
<path d="M4899 6760 c-90 -15 -197 -86 -261 -174 -31 -44 -36 -81 -12 -107 21
-23 38 -16 101 43 90 83 164 104 282 76 48 -11 53 -10 76 12 35 33 33 74 -6
111 -17 15 -47 31 -67 35 -20 3 -44 7 -52 9 -8 1 -36 -1 -61 -5z"/>
<path d="M5790 6659 c-44 -18 -70 -50 -70 -85 0 -45 22 -58 99 -59 105 -2 182
-56 253 -178 29 -49 50 -58 82 -34 15 11 18 24 14 68 -9 104 -90 224 -182 271
-47 24 -157 34 -196 17z"/>
<path d="M4739 6136 c-81 -29 -144 -101 -175 -201 -21 -66 -29 -199 -15 -251
41 -154 187 -201 302 -97 138 124 170 391 61 507 -50 53 -106 66 -173 42z m24
-54 c39 -34 7 -141 -49 -162 -36 -14 -42 -13 -69 15 -45 45 -28 115 37 155 32
19 51 17 81 -8z"/>
<path d="M5600 5970 c-56 -31 -77 -51 -114 -113 -82 -139 -87 -345 -9 -438 32
-38 95 -68 141 -69 76 0 183 94 223 198 31 79 38 230 14 301 -19 59 -54 105
-96 126 -39 21 -117 18 -159 -5z m54 -49 c39 -43 9 -143 -50 -167 -63 -26
-117 35 -95 107 21 70 105 105 145 60z"/>
<path d="M5024 5591 c-55 -25 -88 -79 -88 -143 0 -64 41 -124 107 -157 47 -23
48 -23 88 -6 49 23 105 83 114 123 15 71 -45 173 -113 192 -50 13 -60 13 -108
-9z m99 -10 c43 -17 77 -62 76 -101 -1 -32 -2 -33 -9 -10 -6 19 -8 20 -9 6 -1
-12 -6 -16 -17 -12 -11 4 -15 2 -11 -8 15 -38 -114 -82 -133 -46 -5 10 -16 20
-24 23 -20 8 -9 -27 20 -58 37 -41 105 -33 162 18 12 11 22 15 22 9 0 -17 -63
-61 -97 -68 -42 -8 -99 18 -123 58 -63 104 33 231 143 189z"/>
<path d="M4687 5133 c-27 -26 21 -128 95 -202 112 -112 286 -141 435 -71 106
49 152 95 132 132 -14 27 -35 22 -90 -22 -60 -47 -130 -70 -214 -70 -124 0
-216 58 -276 175 -25 48 -39 65 -55 65 -11 0 -24 -3 -27 -7z"/>
<path d="M6546 6199 c-3 -18 -4 -34 -2 -36 2 -3 7 10 11 27 4 17 5 34 2 36 -2
3 -7 -10 -11 -27z"/>
<path d="M6431 5774 c0 -11 3 -14 6 -6 3 7 2 16 -1 19 -3 4 -6 -2 -5 -13z"/>
<path d="M6907 6366 c-4 -10 -7 -25 -6 -34 0 -11 4 -9 10 7 5 13 8 29 6 35 -2
5 -6 2 -10 -8z"/>
<path d="M6799 6163 c-13 -16 -12 -17 4 -4 16 13 21 21 13 21 -2 0 -10 -8 -17
-17z"/>
<path d="M6521 5534 c0 -11 3 -14 6 -6 3 7 2 16 -1 19 -3 4 -6 -2 -5 -13z"/>
<path d="M6467 5343 c-4 -3 -7 -20 -6 -37 l1 -31 8 35 c9 36 8 45 -3 33z"/>
<path d="M6436 5203 c-6 -14 -5 -15 5 -6 7 7 10 15 7 18 -3 3 -9 -2 -12 -12z"/>
<path d="M6422 5160 c0 -14 2 -19 5 -12 2 6 2 18 0 25 -3 6 -5 1 -5 -13z"/>
<path d="M8020 5040 l-85 -6 80 -1 c44 -1 100 2 125 6 l45 8 -40 0 c-22 0 -78
-4 -125 -7z"/>
<path d="M8053 5003 c9 -2 23 -2 30 0 6 3 -1 5 -18 5 -16 0 -22 -2 -12 -5z"/>
<path d="M7858 4983 c18 -2 45 -2 60 0 15 2 0 4 -33 4 -33 0 -45 -2 -27 -4z"/>
<path d="M8150 4840 l-55 -7 55 0 c30 -1 80 2 110 7 l55 7 -55 0 c-30 0 -80
-3 -110 -7z"/>
<path d="M8165 4810 c-47 -6 -34 -7 57 -6 64 0 111 4 105 8 -14 9 -76 8 -162
-2z"/>
<path d="M7633 4763 c9 -2 23 -2 30 0 6 3 -1 5 -18 5 -16 0 -22 -2 -12 -5z"/>
<path d="M8270 4747 c0 -13 9 -15 53 -10 62 7 74 13 26 13 -19 0 -44 3 -56 6
-17 5 -23 2 -23 -9z"/>
<path d="M8725 4755 c25 -8 115 -11 115 -4 0 5 -28 9 -62 8 -35 0 -58 -2 -53
-4z"/>
<path d="M8198 4743 c12 -2 30 -2 40 0 9 3 -1 5 -23 4 -22 0 -30 -2 -17 -4z"/>
<path d="M8481 4736 c10 -9 149 -14 144 -5 -4 5 -38 9 -77 9 -39 0 -69 -2 -67
-4z"/>
<path d="M7688 4723 c12 -2 30 -2 40 0 9 3 -1 5 -23 4 -22 0 -30 -2 -17 -4z"/>
<path d="M8688 4723 c18 -2 45 -2 60 0 15 2 0 4 -33 4 -33 0 -45 -2 -27 -4z"/>
<path d="M8235 4713 c16 -3 34 -10 38 -16 6 -8 7 -7 4 3 -2 9 -17 16 -38 16
-31 2 -31 1 -4 -3z"/>
<path d="M7703 4673 c15 -2 39 -2 55 0 15 2 2 4 -28 4 -30 0 -43 -2 -27 -4z"/>
<path d="M8178 4673 c6 -2 18 -2 25 0 6 3 1 5 -13 5 -14 0 -19 -2 -12 -5z"/>
<path d="M8275 4670 c-7 -11 10 -29 48 -51 32 -18 28 -4 -7 30 -23 22 -36 29
-41 21z"/>
<path d="M8218 4653 c6 -2 18 -2 25 0 6 3 1 5 -13 5 -14 0 -19 -2 -12 -5z"/>
<path d="M8162 4628 c3 -8 28 -14 69 -16 51 -1 60 0 45 9 -10 7 -35 9 -60 5
-29 -4 -37 -3 -26 4 12 8 11 10 -8 10 -15 0 -22 -5 -20 -12z"/>
<path d="M8723 4663 c20 -2 54 -2 75 0 20 2 3 4 -38 4 -41 0 -58 -2 -37 -4z"/>
<path d="M8508 4643 c39 -2 105 -2 145 0 39 1 7 3 -73 3 -80 0 -112 -2 -72 -3z"/>
<path d="M7658 4443 c23 -2 59 -2 80 0 20 2 1 4 -43 4 -44 0 -61 -2 -37 -4z"/>
<path d="M7627 4379 c7 -7 15 -10 18 -7 3 3 -2 9 -12 12 -14 6 -15 5 -6 -5z"/>
<path d="M7673 4353 c15 -2 37 -2 50 0 12 2 0 4 -28 4 -27 0 -38 -2 -22 -4z"/>
<path d="M3141 4350 c-1 -36 17 -115 24 -108 3 2 -2 35 -9 74 -10 50 -14 60
-15 34z"/>
<path d="M8618 4403 c23 -2 59 -2 80 0 20 2 1 4 -43 4 -44 0 -61 -2 -37 -4z"/>
<path d="M4420 4190 c-18 -12 -2 -12 25 0 13 6 15 9 5 9 -8 0 -22 -4 -30 -9z"/>
<path d="M7515 4189 c-11 -17 1 -21 15 -4 8 9 8 15 2 15 -6 0 -14 -5 -17 -11z"/>
<path d="M7278 4047 c24 -12 63 -42 88 -66 48 -49 57 -44 21 10 -23 35 -97 79
-132 79 -14 0 -6 -8 23 -23z"/>
<path d="M7704 3815 c-25 -19 -15 -19 27 0 25 10 29 14 13 15 -11 0 -29 -7
-40 -15z"/>
<path d="M3500 4021 c0 -6 4 -13 10 -16 6 -3 7 1 4 9 -7 18 -14 21 -14 7z"/>
<path d="M3523 3970 c1 -14 10 -33 19 -42 23 -23 22 -12 -1 32 -17 31 -19 32
-18 10z"/>
<path d="M3561 3884 c0 -11 3 -14 6 -6 3 7 2 16 -1 19 -3 4 -6 -2 -5 -13z"/>
<path d="M3526 3838 c3 -4 9 -8 15 -8 5 0 9 4 9 8 0 5 -7 9 -15 9 -8 0 -12 -4
-9 -9z"/>
<path d="M4211 4124 c0 -11 3 -14 6 -6 3 7 2 16 -1 19 -3 4 -6 -2 -5 -13z"/>
<path d="M4041 3124 c0 -11 3 -14 6 -6 3 7 2 16 -1 19 -3 4 -6 -2 -5 -13z"/>
<path d="M7818 4243 c7 -3 16 -2 19 1 4 3 -2 6 -13 5 -11 0 -14 -3 -6 -6z"/>
<path d="M7878 4243 c18 -2 45 -2 60 0 15 2 0 4 -33 4 -33 0 -45 -2 -27 -4z"/>
<path d="M8028 4233 c7 -3 16 -2 19 1 4 3 -2 6 -13 5 -11 0 -14 -3 -6 -6z"/>
<path d="M8220 4122 c0 -5 14 -7 30 -4 17 2 30 6 30 8 0 2 -13 4 -30 4 -16 0
-30 -4 -30 -8z"/>
<path d="M5366 4139 c2 -4 -2 -9 -8 -12 -7 -2 -10 -8 -6 -12 4 -4 26 -1 50 7
l43 15 -42 4 c-23 2 -39 1 -37 -2z"/>
<path d="M5159 3803 c-13 -16 -12 -17 4 -4 9 7 17 15 17 17 0 8 -8 3 -21 -13z"/>
<path d="M5084 3718 l-19 -23 23 19 c21 18 27 26 19 26 -2 0 -12 -10 -23 -22z"/>
<path d="M5006 3641 c-23 -24 -25 -29 -11 -35 10 -3 14 -2 9 5 -3 6 4 21 17
35 12 13 20 24 18 24 -3 0 -18 -13 -33 -29z"/>
<path d="M4900 3700 c0 -5 5 -10 10 -10 6 0 10 5 10 10 0 6 -4 10 -10 10 -5 0
-10 -4 -10 -10z"/>
<path d="M3905 3875 c-22 -14 -35 -25 -30 -25 6 0 25 9 43 20 18 11 38 17 44
14 7 -4 8 -2 4 4 -10 16 -15 15 -61 -13z"/>
<path d="M3756 3811 c-4 -5 3 -7 14 -4 23 6 26 13 6 13 -8 0 -17 -4 -20 -9z"/>
<path d="M4776 3272 c-3 -5 1 -9 9 -9 8 0 12 4 9 9 -3 4 -7 8 -9 8 -2 0 -6 -4
-9 -8z"/>
<path d="M6325 3709 c-4 -6 -5 -12 -2 -15 2 -3 7 2 10 11 7 17 1 20 -8 4z"/>
<path d="M6340 3692 c0 -17 34 -81 43 -82 4 0 -2 19 -14 43 -25 49 -29 54 -29
39z"/>
<path d="M6754 3659 c-19 -22 -19 -22 4 -8 12 8 22 17 22 21 0 12 -6 9 -26
-13z"/>
<path d="M6542 3494 c-29 -20 -46 -51 -27 -51 7 0 11 7 7 15 -3 9 -1 13 4 10
5 -3 17 5 27 18 21 28 19 29 -11 8z"/>
<path d="M8133 3923 c9 -2 25 -2 35 0 9 3 1 5 -18 5 -19 0 -27 -2 -17 -5z"/>
<path d="M8203 3913 c9 -2 23 -2 30 0 6 3 -1 5 -18 5 -16 0 -22 -2 -12 -5z"/>
<path d="M8165 3869 c132 -20 162 -22 152 -12 -9 8 -190 33 -237 32 -19 -1 19
-9 85 -20z"/>
<path d="M8118 3823 c6 -2 18 -2 25 0 6 3 1 5 -13 5 -14 0 -19 -2 -12 -5z"/>
<path d="M8183 3823 c15 -2 39 -2 55 0 15 2 2 4 -28 4 -30 0 -43 -2 -27 -4z"/>
<path d="M8118 3793 c7 -3 16 -2 19 1 4 3 -2 6 -13 5 -11 0 -14 -3 -6 -6z"/>
<path d="M8203 3773 c9 -2 23 -2 30 0 6 3 -1 5 -18 5 -16 0 -22 -2 -12 -5z"/>
<path d="M8808 3823 c6 -2 18 -2 25 0 6 3 1 5 -13 5 -14 0 -19 -2 -12 -5z"/>
<path d="M8193 3643 c15 -2 37 -2 50 0 12 2 0 4 -28 4 -27 0 -38 -2 -22 -4z"/>
<path d="M7863 3593 c15 -2 39 -2 55 0 15 2 2 4 -28 4 -30 0 -43 -2 -27 -4z"/>
<path d="M7580 3580 c0 -5 21 -9 48 -9 42 1 44 2 17 9 -44 11 -65 11 -65 0z"/>
<path d="M7908 3553 c12 -2 32 -2 45 0 12 2 2 4 -23 4 -25 0 -35 -2 -22 -4z"/>
<path d="M8013 3533 c9 -2 25 -2 35 0 9 3 1 5 -18 5 -19 0 -27 -2 -17 -5z"/>
<path d="M8098 3523 c12 -2 32 -2 45 0 12 2 2 4 -23 4 -25 0 -35 -2 -22 -4z"/>
<path d="M8843 3393 c9 -2 23 -2 30 0 6 3 -1 5 -18 5 -16 0 -22 -2 -12 -5z"/>
<path d="M8820 3370 c30 -4 58 -4 62 -1 4 4 -21 7 -55 8 l-62 1 55 -8z"/>
<path d="M8913 3373 c9 -2 25 -2 35 0 9 3 1 5 -18 5 -19 0 -27 -2 -17 -5z"/>
<path d="M8968 3333 c7 -3 16 -2 19 1 4 3 -2 6 -13 5 -11 0 -14 -3 -6 -6z"/>
<path d="M8863 3323 c15 -2 37 -2 50 0 12 2 0 4 -28 4 -27 0 -38 -2 -22 -4z"/>
<path d="M8698 3313 c7 -3 16 -2 19 1 4 3 -2 6 -13 5 -11 0 -14 -3 -6 -6z"/>
<path d="M7440 2935 l0 -102 100 -12 c56 -6 120 -11 144 -11 24 0 70 -3 103
-6 l60 -6 2 -109 2 -109 -58 0 c-32 0 -123 7 -203 15 -80 8 -149 15 -153 15
-5 0 -7 15 -5 33 2 25 7 32 23 30 11 -2 72 -7 135 -13 63 -6 139 -14 168 -19
l52 -8 0 73 c0 86 10 79 -150 94 -63 6 -134 13 -156 16 l-42 6 -7 -60 c-4 -36
-12 -63 -20 -66 -20 -7 -36 -73 -25 -102 7 -17 17 -24 35 -24 20 0 25 -5 25
-24 0 -13 6 -28 13 -34 7 -6 102 -19 210 -28 219 -19 227 -17 227 42 0 19 -4
34 -9 34 -4 0 -11 48 -14 107 -4 86 -2 109 9 118 22 16 16 227 -7 230 -13 2
-15 -7 -14 -51 2 -30 -2 -57 -6 -60 -5 -3 -7 -9 -4 -14 6 -9 -53 -5 -87 6 -9
2 -19 0 -22 -5 -4 -6 10 -13 31 -17 51 -9 73 -21 73 -41 0 -13 -7 -14 -37 -9
-21 3 -108 11 -193 17 -85 6 -160 15 -166 21 -14 11 -6 48 10 48 6 0 47 -4 91
-9 180 -21 173 -21 178 0 3 10 2 21 -3 24 -4 3 -10 14 -13 26 -4 15 -2 19 9
15 8 -3 14 -1 14 3 0 5 -7 12 -16 15 -8 3 -13 10 -10 15 7 11 -67 21 -153 21
-44 0 -61 3 -51 10 9 6 -3 8 -38 7 l-52 -1 0 -101z m160 69 c107 -7 112 -8
121 -32 19 -50 10 -57 -66 -54 -39 1 -98 5 -132 8 l-63 6 0 45 c0 35 3 44 14
40 8 -3 65 -9 126 -13z m74 -224 c54 -6 102 -13 107 -16 5 -3 9 -23 9 -46 l0
-40 -67 6 c-38 4 -107 12 -155 18 l-88 11 0 44 0 44 48 -6 c26 -3 91 -10 146
-15z"/>
<path d="M7836 2917 c3 -10 9 -15 12 -12 3 3 0 11 -7 18 -10 9 -11 8 -5 -6z"/>
<path d="M6560 1712 c0 -293 3 -539 7 -547 3 -11 12 -13 27 -9 61 20 335 77
431 90 38 5 45 9 30 15 -17 6 -17 8 -2 8 16 1 17 15 15 174 l-2 172 -6 -170
c-6 -174 -10 -202 -16 -106 -2 41 -9 60 -26 78 -22 22 -33 23 -174 28 -135 4
-153 3 -167 -13 -15 -17 -17 -21 -17 -44 0 -23 -13 3 -20 39 l-8 38 -2 -45
c-1 -25 -2 -48 -1 -52 0 -5 -4 -8 -9 -8 -6 0 -10 16 -10 36 0 22 -6 41 -16 48
-14 11 -16 61 -21 402 -3 214 -7 391 -9 393 -2 3 -4 -235 -4 -527z m415 -450
c-3 -3 -11 0 -18 7 -9 10 -8 11 6 5 10 -3 15 -9 12 -12z m-360 -82 c-3 -5 -14
-10 -23 -9 -14 0 -13 2 3 9 27 11 27 11 20 0z"/>
<path d="M6590 1460 c0 -5 5 -10 10 -10 6 0 10 5 10 10 0 6 -4 10 -10 10 -5 0
-10 -4 -10 -10z"/>
<path d="M7434 1831 c-2 -2 -4 -31 -4 -63 0 -46 4 -62 20 -75 11 -10 20 -30
20 -45 0 -23 -4 -28 -24 -28 -28 0 -42 -14 -51 -53 -11 -43 1 -74 35 -85 24
-9 30 -17 30 -40 0 -29 2 -30 63 -41 107 -18 296 -41 341 -41 31 0 46 5 50 16
8 22 8 79 -1 88 -5 4 -8 80 -8 169 0 136 -2 162 -15 165 -12 2 -14 -8 -12 -54
2 -32 -1 -61 -7 -67 -8 -8 -11 3 -13 38 l-1 50 -6 -45 c-4 -28 -9 -40 -14 -33
-4 7 -18 18 -30 24 l-22 12 20 -23 20 -23 -25 8 c-33 10 -56 45 -30 45 6 0 9
15 9 33 l-1 32 -8 -30 c-6 -25 -15 -19 -11 7 0 4 -7 12 -17 17 -18 10 -129 26
-149 23 -7 -2 -13 1 -13 7 0 9 -137 20 -146 12z m174 -40 c51 -6 97 -13 102
-16 6 -3 10 -24 10 -47 0 -39 -1 -40 -27 -35 -16 3 -74 12 -130 18 l-103 13 0
43 c0 41 1 42 28 38 15 -3 69 -9 120 -14z m139 -63 l1 -53 -8 45 c-6 39 -5 60
4 60 1 0 3 -24 3 -52z m-142 -82 c50 -3 74 -1 65 4 -19 12 -4 13 18 1 10 -5
42 -12 72 -15 30 -4 63 -9 73 -12 28 -9 19 -21 -15 -19 -332 18 -328 17 -328
35 0 12 6 17 18 15 9 -2 53 -6 97 -9z m-2 -84 c88 -12 163 -25 168 -28 5 -3 9
-12 9 -20 0 -8 5 -14 10 -14 12 0 13 30 2 46 -4 6 -25 12 -47 13 -22 1 -78 8
-125 16 l-85 14 70 -4 c200 -12 223 -16 229 -39 15 -55 4 -75 -39 -71 -11 1
-58 5 -105 9 -47 4 -128 13 -180 20 l-95 12 2 29 c3 40 12 62 21 49 4 -6 78
-21 165 -32z m-85 31 c-10 -2 -28 -2 -40 0 -13 2 -5 4 17 4 22 1 32 -1 23 -4z"/>
<path d="M7796 1771 c-3 -4 6 -13 19 -19 14 -7 25 -8 25 -4 0 12 -39 32 -44
23z"/>
<path d="M9195 7038 c-11 -6 -49 -37 -85 -68 -36 -32 -80 -65 -98 -75 -33 -16
-35 -16 -70 7 -21 14 -45 27 -54 31 -18 6 -70 -31 -161 -116 l-48 -44 -20 28
c-26 37 -41 36 -90 -3 l-39 -32 -35 34 c-30 29 -39 32 -59 24 -14 -5 -198
-180 -410 -390 -377 -372 -386 -381 -386 -420 0 -36 7 -46 123 -159 276 -272
523 -498 565 -517 41 -19 43 -19 85 0 50 23 90 57 359 301 112 102 213 194
226 205 l22 20 29 -28 c19 -18 35 -26 48 -22 22 7 495 491 505 518 11 28 -4
56 -81 148 -39 47 -71 89 -71 94 0 5 23 33 50 62 43 46 50 58 50 94 0 36 -7
48 -62 108 -35 37 -98 100 -141 140 -81 75 -108 85 -152 60z m142 -100 c99
-93 152 -148 170 -175 14 -21 13 -26 -3 -52 -11 -15 -34 -45 -53 -66 l-33 -38
-147 152 c-80 83 -149 151 -153 151 -19 0 -1 -25 98 -131 95 -103 252 -288
328 -389 l28 -38 -20 -29 c-31 -41 -338 -343 -317 -310 9 15 21 27 27 27 5 0
8 8 6 17 -2 10 3 18 12 18 9 0 14 8 13 20 -1 11 0 14 3 8 9 -21 26 -15 19 6
-3 11 -1 22 4 26 7 4 8 -1 4 -12 -6 -14 -1 -13 24 7 18 14 30 31 28 38 -3 8 0
10 7 6 7 -5 9 -2 5 9 -4 12 -2 14 10 10 12 -5 15 -2 10 10 -4 11 -2 14 9 10
10 -4 13 0 8 13 -4 14 -3 15 3 6 8 -10 13 -9 24 4 9 12 10 15 2 10 -7 -4 -13
-3 -13 2 0 15 28 34 40 27 5 -3 10 -3 11 2 0 4 2 16 4 26 2 9 -1 15 -6 11 -5
-3 -7 -9 -5 -13 3 -3 -4 -7 -14 -7 -18 0 -18 2 -4 17 15 16 14 19 -6 31 -27
17 -94 126 -92 152 1 21 -220 253 -301 314 l-49 37 33 25 c18 14 55 46 83 71
58 52 83 68 109 69 10 0 52 -32 94 -72z m-396 -95 c30 -32 84 -91 119 -131 34
-40 72 -78 84 -84 12 -6 1 11 -25 38 -69 74 -159 181 -159 189 0 9 55 -33 101
-76 294 -284 301 -291 264 -305 -9 -4 -23 4 -35 17 -10 13 -19 20 -20 15 0 -5
7 -18 17 -28 15 -17 15 -19 -2 -38 -10 -11 -24 -20 -30 -20 -7 0 -15 -7 -19
-15 -6 -17 -36 -20 -36 -4 0 16 -400 413 -407 405 -4 -3 79 -90 183 -192 104
-103 197 -198 206 -212 17 -26 17 -26 -38 -77 -64 -60 -74 -94 -11 -41 74 64
172 142 187 150 19 10 -61 -66 -123 -117 -26 -22 -45 -42 -42 -47 3 -4 -10
-19 -28 -33 -50 -38 -143 -127 -134 -127 5 0 37 26 73 58 35 31 68 57 73 57 5
0 33 25 62 55 30 31 51 51 47 46 -16 -21 -7 -28 12 -11 12 11 18 25 15 34 -3
8 -3 12 1 8 4 -4 13 2 21 13 8 11 22 20 31 20 11 0 -4 -21 -42 -59 -33 -33
-62 -59 -65 -58 -4 1 -34 -25 -66 -59 -33 -33 -50 -49 -37 -34 45 52 20 43
-40 -16 -35 -33 -94 -86 -133 -116 -38 -31 -88 -75 -109 -97 -22 -22 -43 -38
-48 -35 -10 7 -44 -36 -40 -49 1 -5 -2 -6 -7 -3 -5 3 -60 -45 -122 -107 -63
-62 -136 -133 -164 -157 l-50 -44 40 44 c67 75 397 402 463 458 34 30 62 49
62 42 0 -6 5 -8 12 -4 9 6 9 9 -1 12 -8 3 9 26 45 63 31 32 61 56 66 53 4 -3
5 2 2 11 -6 13 -17 7 -58 -34 -92 -91 -181 -171 -190 -171 -4 0 32 39 80 88
49 48 94 87 99 87 6 0 9 6 7 13 -1 8 1 11 6 8 5 -3 19 9 32 26 20 27 21 30 5
24 -18 -7 -18 -6 0 14 13 14 16 24 8 28 -5 4 -18 21 -27 37 -9 17 -23 39 -31
51 -14 19 -13 23 5 44 17 20 22 21 37 9 15 -12 14 -11 -1 14 -22 33 -25 33
-51 2 l-20 -25 -148 143 -149 143 72 70 c39 38 75 70 78 72 4 1 15 -10 23 -24
9 -15 50 -63 91 -108 42 -44 89 -97 106 -116 17 -19 33 -32 37 -28 3 3 -49 68
-117 143 -68 75 -124 141 -126 146 -10 27 30 2 79 -48z m-472 -71 c12 -22 137
-128 183 -155 26 -15 23 -10 -17 27 -27 26 -60 54 -72 62 -13 9 -23 20 -23 24
0 4 18 20 41 36 l41 28 21 -29 c12 -17 87 -96 167 -176 218 -220 250 -260 213
-265 -6 -1 -20 -8 -30 -16 -22 -16 -265 -268 -388 -402 -49 -54 -122 -130
-160 -169 -66 -68 -183 -198 -196 -218 -3 -5 -26 10 -50 33 -25 24 -65 60 -90
82 -46 40 -108 97 -249 231 -47 44 -108 100 -135 124 l-50 43 385 379 c212
209 388 379 392 379 4 0 12 -8 17 -18z m561 -469 c0 -5 -28 -37 -61 -73 -34
-36 -58 -58 -53 -48 8 13 104 124 112 127 1 1 2 -2 2 -6z m215 -74 c-22 -22
-80 -75 -129 -117 -49 -42 -117 -102 -150 -134 -34 -31 -81 -73 -106 -95 -59
-51 -65 -57 -151 -138 -41 -38 -56 -50 -34 -25 22 24 48 50 58 58 9 7 14 19
11 25 -4 7 -4 9 1 5 7 -7 189 150 207 178 4 6 25 23 47 39 23 15 38 32 34 39
-3 6 -3 8 2 4 4 -4 44 25 87 65 44 39 96 87 116 105 50 45 54 40 7 -9z m-384
-112 l-24 -22 19 27 c10 14 21 24 23 22 3 -3 -6 -15 -18 -27z m209 -1 c0 -2
-8 -10 -17 -17 -16 -13 -17 -12 -4 4 13 16 21 21 21 13z m-250 -39 c0 -2 -13
-16 -30 -32 -16 -16 -30 -26 -30 -22 0 3 12 18 27 32 27 24 33 28 33 22z m0
-74 c0 -5 -13 -17 -28 -27 l-27 -19 24 26 c26 28 31 32 31 20z m80 -16 c0 -2
-15 -16 -32 -33 l-33 -29 29 33 c28 30 36 37 36 29z m-180 -10 c0 -2 -10 -12
-22 -23 l-23 -19 19 23 c18 21 26 27 26 19z m200 0 c0 -2 -10 -12 -22 -23
l-23 -19 19 23 c18 21 26 27 26 19z m270 -22 c-7 -9 -15 -13 -19 -10 -3 3 1
10 9 15 21 14 24 12 10 -5z m-1417 -41 c26 -35 16 -30 -24 12 -18 20 -25 31
-14 24 11 -6 28 -23 38 -36z m917 -39 c-30 -30 -58 -55 -63 -55 -8 0 104 109
113 110 2 0 -20 -25 -50 -55z m6 -93 c-182 -179 -245 -236 -251 -230 -3 3 39
45 92 94 54 48 141 130 194 181 53 51 99 93 101 93 3 0 -58 -62 -136 -138z
m-83 78 c-10 -11 -19 -20 -21 -20 -1 0 2 9 8 20 6 11 15 20 20 20 6 0 2 -9 -7
-20z m-33 -33 c0 -2 -9 -12 -20 -22 -24 -21 -27 -14 -4 9 15 15 24 20 24 13z
m-50 -51 c0 -2 -8 -10 -17 -17 -16 -13 -17 -12 -4 4 13 16 21 21 21 13z m38
-16 c-7 -11 -17 -20 -22 -20 -5 0 -1 9 9 20 10 11 20 20 22 20 2 0 -2 -9 -9
-20z m-103 -340 c-3 -5 -12 -10 -18 -10 -7 0 -6 4 3 10 19 12 23 12 15 0z"/>
<path d="M9385 6490 c-11 -5 -14 -9 -7 -9 7 -1 11 -5 8 -9 -2 -4 11 -32 30
-62 18 -30 34 -52 34 -48 0 3 3 14 6 22 5 12 2 15 -11 10 -14 -6 -16 -3 -10
17 5 18 4 21 -4 9 -7 -9 -11 -10 -11 -3 0 7 7 16 15 20 12 7 11 13 -8 35 -17
20 -27 24 -42 18z m30 -30 c1 -10 -2 -17 -6 -14 -4 2 -7 13 -6 24 2 23 10 17
12 -10z"/>
<path d="M9465 6410 c10 -11 20 -20 23 -20 3 0 -3 9 -13 20 -10 11 -20 20 -23
20 -3 0 3 -9 13 -20z"/>
<path d="M9470 6363 c0 -15 19 -37 26 -31 3 4 -1 14 -10 23 -9 9 -16 13 -16 8z"/>
<path d="M8826 6832 c-6 -10 246 -262 261 -262 5 0 40 -31 78 -70 38 -38 71
-67 73 -65 8 8 -123 145 -139 145 -9 0 -73 59 -142 130 -69 72 -128 126 -131
122z"/>
<path d="M8767 6759 c7 -7 15 -10 18 -7 3 3 -2 9 -12 12 -14 6 -15 5 -6 -5z"/>
<path d="M8760 6715 c13 -14 26 -25 28 -25 3 0 -5 11 -18 25 -13 14 -26 25
-28 25 -3 0 5 -11 18 -25z"/>
<path d="M9160 6577 c0 -2 14 -16 32 -33 l31 -29 -22 33 c-18 26 -41 42 -41
29z"/>
<path d="M9114 6248 l-19 -21 28 18 c28 18 33 25 19 25 -5 0 -17 -10 -28 -22z"/>
<path d="M8877 6013 c-101 -103 -107 -112 -22 -34 113 104 120 111 110 111 -6
0 -45 -35 -88 -77z"/>
<path d="M6036 735 c-9 -26 -7 -32 5 -12 6 10 9 21 6 23 -2 3 -7 -2 -11 -11z"/>
<path d="M6048 683 c7 -3 16 -2 19 1 4 3 -2 6 -13 5 -11 0 -14 -3 -6 -6z"/>
</g>
</svg>
